<svg xmlns="http://www.w3.org/2000/svg" xmlns:svg="http://www.w3.org/2000/svg" xmlns:xlink="http://www.w3.org/1999/xlink" version="1.0" height="490pt" width="730pt" viewBox="415 97 738 496" ><defs><style type="text/css">
            @font-face {
                font-family: 'noto_regular';
                src: url('https://app.creately.com/diagram/assets/fonts/noto/noto-regular.woff') format('woff'),
                     url('https://app.creately.com/diagram/assets/fonts/noto/noto-regular.woff2') format('woff2');
                font-weight: normal;
                font-style: normal;
            }
        p {
            margin: 0;
        }
        </style></defs><defs><style>
            span{ display: inline-block; }
        </style></defs><g id="caPK5Fda9Hp"><g transform="translate(740 340)"><rect x="0" y="0" width="115" height="30" fill="rgba(255,255,255,0.01)" stroke="rgba(255,255,255,0.01)"/><path d="M 27.1,30 L 14.8,30 C 14,30 13.3,29.3 13.3,28.5 L 13.3,28.1 L 28.6,28.1 L 28.6,28.5 C 28.6,29.3 27.900000000000002,30 27.1,30 Z M 100.5,30 L 88.2,30 C 87.4,30 86.7,29.3 86.7,28.5 L 86.7,28.1 L 102,28.1 L 102,28.5 C 102,29.3 101.3,30 100.5,30 Z" fill="rgb(7, 43, 57)" stroke="rgba(255,255,255,0.01)"/><path d="M 111.6,28.2 L 3.4,28.2 C 1.5999999999999999,28.2 0,26.599999999999998 0,24.7 L 0,3.5 C 0,1.6 1.5,0 3.4,0 L 111.7,0 C 113.5,0 115.10000000000001,1.6 115.10000000000001,3.5 L 115.10000000000001,24.7 C 115.00000000000001,26.599999999999998 113.50000000000001,28.2 111.60000000000001,28.2 Z" fill="rgb(50, 74, 98)" stroke="rgba(255,255,255,0.01)"/><path d="M 114,2.8 L 1.2,2.8 C 1.2,1.9 2,1.0999999999999999 2.9,1.0999999999999999 L 112.30000000000001,1.0999999999999999 C 113.20000000000002,1.2 114.00000000000001,1.9 114.00000000000001,2.8 Z" fill="rgb(55, 102, 140)" stroke="rgba(255,255,255,0.01)"/><path d="M 45.5,1.1 C 45.1,2.7 45.1,4.2 45.5,5.800000000000001 C 45.6,6.1000000000000005 46.1,6.300000000000001 46.6,6.300000000000001 C 47.1,6.200000000000001 47.4,6.000000000000001 47.4,5.700000000000001 C 47,4.300000000000001 47,2.800000000000001 47.4,1.3000000000000007 L 47.4,1.1000000000000008 L 45.5,1.1000000000000008 Z M 52.3,1.1 C 51.9,2.7 51.9,4.2 52.3,5.800000000000001 C 52.4,6.1000000000000005 52.9,6.300000000000001 53.4,6.300000000000001 C 53.9,6.200000000000001 54.199999999999996,6.000000000000001 54.199999999999996,5.700000000000001 C 53.8,4.300000000000001 53.8,2.800000000000001 54.199999999999996,1.3000000000000007 L 54.199999999999996,1.1000000000000008 L 52.3,1.1000000000000008 Z M 59,1.1 C 58.6,2.7 58.6,4.2 59,5.800000000000001 C 59.1,6.1000000000000005 59.6,6.300000000000001 60.1,6.300000000000001 C 60.6,6.200000000000001 60.9,6.000000000000001 60.9,5.700000000000001 C 60.5,4.300000000000001 60.5,2.800000000000001 60.9,1.3000000000000007 L 60.9,1.1000000000000008 L 59,1.1000000000000008 Z M 65.8,1.1 C 65.39999999999999,2.7 65.39999999999999,4.2 65.8,5.800000000000001 C 65.89999999999999,6.1000000000000005 66.39999999999999,6.300000000000001 66.89999999999999,6.300000000000001 C 67.39999999999999,6.200000000000001 67.69999999999999,6.000000000000001 67.69999999999999,5.700000000000001 C 67.29999999999998,4.300000000000001 67.29999999999998,2.800000000000001 67.69999999999999,1.3000000000000007 L 67.69999999999999,1.1000000000000008 L 65.79999999999998,1.1000000000000008 Z M 72.6,1.1 C 72.19999999999999,2.7 72.19999999999999,4.2 72.6,5.800000000000001 C 72.69999999999999,6.1000000000000005 73.19999999999999,6.300000000000001 73.69999999999999,6.300000000000001 C 74.19999999999999,6.200000000000001 74.49999999999999,6.000000000000001 74.49999999999999,5.700000000000001 C 74.09999999999998,4.300000000000001 74.09999999999998,2.800000000000001 74.49999999999999,1.3000000000000007 L 74.49999999999999,1.1000000000000008 L 72.59999999999998,1.1000000000000008 Z M 79.3,1.1 C 78.89999999999999,2.7 78.89999999999999,4.2 79.3,5.800000000000001 C 79.39999999999999,6.1000000000000005 79.89999999999999,6.300000000000001 80.39999999999999,6.300000000000001 C 80.89999999999999,6.200000000000001 81.19999999999999,6.000000000000001 81.19999999999999,5.700000000000001 C 80.79999999999998,4.300000000000001 80.79999999999998,2.800000000000001 81.19999999999999,1.3000000000000007 L 81.19999999999999,1.1000000000000008 L 79.29999999999998,1.1000000000000008 Z M 86.1,1.1 C 85.69999999999999,2.7 85.69999999999999,4.2 86.1,5.800000000000001 C 86.19999999999999,6.1000000000000005 86.69999999999999,6.300000000000001 87.19999999999999,6.300000000000001 C 87.69999999999999,6.200000000000001 87.99999999999999,5.9 87.99999999999999,5.6000000000000005 C 87.59999999999998,4.200000000000001 87.59999999999998,2.7000000000000006 87.99999999999999,1.2000000000000002 L 87.99999999999999,1 L 86.09999999999998,1.1 Z M 92.89999999999999,1.1 C 92.49999999999999,2.7 92.49999999999999,4.2 92.89999999999999,5.800000000000001 C 92.99999999999999,6.1000000000000005 93.49999999999999,6.300000000000001 93.99999999999999,6.300000000000001 C 94.49999999999999,6.200000000000001 94.79999999999998,6.000000000000001 94.79999999999998,5.700000000000001 C 94.39999999999998,4.300000000000001 94.39999999999998,2.800000000000001 94.79999999999998,1.3000000000000007 L 94.79999999999998,1.1000000000000008 L 92.89999999999998,1.1000000000000008 Z" fill="rgb(252, 211, 157)" stroke="rgba(255,255,255,0.01)"/><path d="M 109.5,17 L 5.7,17 C 5.1000000000000005,17 4.7,16.5 4.7,16 L 4.7,11.3 C 4.7,10.700000000000001 5.2,10.3 5.7,10.3 L 109.5,10.3 C 110.1,10.3 110.5,10.8 110.5,11.3 L 110.5,16 C 110.5,16.5 110,17 109.5,17 Z" fill="rgb(7, 43, 57)" stroke="rgba(255,255,255,0.01)"/><path d="M 92.8,13.8 C 92.79999995981642,14.49282032302755 93.54999993470167,14.925833068577111 94.14999995479346,14.579422941863337 C 94.42846096550221,14.418653423906138 94.60000001864925,14.121539068215876 94.6,13.8 C 94.60000004018357,13.107179676972452 93.8500000652983,12.67416693142289 93.25000004520652,13.020577058136665 C 92.97153903449777,13.181346576093864 92.79999998135074,13.478460931784126 92.8,13.8" fill="rgb(255, 255, 255)" stroke="rgba(255,255,255,0.01)"/><path d="M 86.1,13.8 C 86.09999995981642,14.49282032302755 86.84999993470169,14.925833068577111 87.44999995479347,14.579422941863337 C 87.72846096550222,14.418653423906138 87.90000001864925,14.121539068215876 87.89999999999999,13.8 C 87.90000004018357,13.107179676972452 87.15000006529831,12.67416693142289 86.55000004520653,13.020577058136665 C 86.27153903449778,13.181346576093864 86.09999998135073,13.478460931784126 86.1,13.8" fill="rgb(255, 255, 255)" stroke="rgba(255,255,255,0.01)"/><path d="M 79.39999999999999,13.8 C 79.39999995981641,14.49282032302755 80.14999993470167,14.925833068577111 80.74999995479345,14.579422941863337 C 81.0284609655022,14.418653423906138 81.20000001864925,14.121539068215876 81.19999999999999,13.8 C 81.20000004018357,13.107179676972452 80.4500000652983,12.67416693142289 79.85000004520651,13.020577058136665 C 79.57153903449776,13.181346576093864 79.39999998135073,13.478460931784126 79.39999999999999,13.8" fill="rgb(255, 255, 255)" stroke="rgba(255,255,255,0.01)"/><path d="M 72.1,13.8 C 72.09999995981642,14.49282032302755 72.84999993470169,14.925833068577111 73.44999995479347,14.579422941863337 C 73.72846096550222,14.418653423906138 73.90000001864925,14.121539068215876 73.89999999999999,13.8 C 73.90000004018357,13.107179676972452 73.15000006529831,12.67416693142289 72.55000004520653,13.020577058136665 C 72.27153903449778,13.181346576093864 72.09999998135073,13.478460931784126 72.1,13.8" fill="rgb(255, 255, 255)" stroke="rgba(255,255,255,0.01)"/><path d="M 65.39999999999999,13.8 C 65.39999995981641,14.49282032302755 66.14999993470167,14.925833068577111 66.74999995479345,14.579422941863337 C 67.0284609655022,14.418653423906138 67.20000001864925,14.121539068215876 67.19999999999999,13.8 C 67.20000004018357,13.107179676972452 66.4500000652983,12.67416693142289 65.85000004520651,13.020577058136665 C 65.57153903449776,13.181346576093864 65.39999998135073,13.478460931784126 65.39999999999999,13.8" fill="rgb(255, 255, 255)" stroke="rgba(255,255,255,0.01)"/><path d="M 58.7,13.8 C 58.699999959816424,14.49282032302755 59.44999993470169,14.925833068577111 60.04999995479348,14.579422941863337 C 60.32846096550224,14.418653423906138 60.50000001864927,14.121539068215876 60.5,13.8 C 60.50000004018358,13.107179676972452 59.750000065298316,12.67416693142289 59.150000045206525,13.020577058136665 C 58.871539034497765,13.181346576093864 58.699999981350736,13.478460931784126 58.7,13.8" fill="rgb(255, 255, 255)" stroke="rgba(255,255,255,0.01)"/><path d="M 52,13.8 C 51.99999995981642,14.49282032302755 52.749999934701684,14.925833068577111 53.349999954793475,14.579422941863337 C 53.628460965502235,14.418653423906138 53.800000018649264,14.121539068215876 53.8,13.8 C 53.800000040183576,13.107179676972452 53.05000006529831,12.67416693142289 52.45000004520652,13.020577058136665 C 52.17153903449776,13.181346576093864 51.99999998135073,13.478460931784126 52,13.8" fill="rgb(255, 255, 255)" stroke="rgba(255,255,255,0.01)"/><path d="M 45.4,13.8 C 45.39999995981642,14.49282032302755 46.14999993470168,14.925833068577111 46.74999995479347,14.579422941863337 C 47.028460965502234,14.418653423906138 47.20000001864926,14.121539068215876 47.199999999999996,13.8 C 47.200000040183575,13.107179676972452 46.45000006529831,12.67416693142289 45.85000004520652,13.020577058136665 C 45.57153903449776,13.181346576093864 45.39999998135073,13.478460931784126 45.4,13.8" fill="rgb(255, 255, 255)" stroke="rgba(255,255,255,0.01)"/><path d="M 33.1,12.8 L 8.3,12.8 C 7.9,12.8 7.500000000000001,13.200000000000001 7.500000000000001,13.600000000000001 C 7.500000000000001,14.000000000000002 7.900000000000001,14.400000000000002 8.3,14.400000000000002 L 33,14.400000000000002 C 33.4,14.400000000000002 33.8,14.000000000000002 33.8,13.600000000000001 C 33.9,13.200000000000001 33.5,12.8 33.099999999999994,12.8 Z" fill="rgb(103, 151, 163)" stroke="rgba(255,255,255,0.01)"/></g><g transform="translate(797.5, 380) rotate(0, 0, 0)" width="0" height="36"><text text-decoration="none" x="0" fill="#4b4b4b" font-size="10pt" font-family="noto_regular"  y="15"></text></g></g><g id="FVjn5d0xa9o"><g transform="translate(420 300)"><rect x="0" y="0" width="130" height="110" fill="rgba(255,255,255,0.01)" stroke="rgba(255,255,255,0.01)"/><path d="M 127.9,110 L 84.3,110 C 83.1,110 82.2,109 82.2,107.9 L 82.2,2.1 C 82.2,0.9000000000000001 83.2,0 84.3,0 L 127.9,0 C 129.1,0 130,1 130,2.1 L 130,107.8 C 130,109 129,110 127.9,110 Z" fill="rgb(27, 46, 61)" stroke="rgba(255,255,255,0.01)"/><path d="M 125.4,105.1 L 86.3,105.1 C 85.1,105.1 84.2,104.1 84.2,103 L 84.2,4.2 C 84.2,3 85.2,2.1 86.3,2.1 L 125.4,2.1 C 126.60000000000001,2.1 127.5,3.1 127.5,4.2 L 127.5,103 C 127.5,104.2 126.5,105.1 125.4,105.1 Z" fill="rgb(216, 221, 225)" stroke="rgba(255,255,255,0.01)"/><path d="M 122.9,10.3 L 89.2,10.3 C 88.60000000000001,10.3 88.2,9.8 88.2,9.3 L 88.2,8.1 C 88.2,7.5 88.7,7.1 89.2,7.1 L 122.9,7.1 C 123.5,7.1 123.9,7.6 123.9,8.1 L 123.9,9.299999999999999 C 123.9,9.799999999999999 123.5,10.299999999999999 122.9,10.299999999999999 Z M 123.10000000000001,24.700000000000003 L 89.4,24.700000000000003 C 88.80000000000001,24.700000000000003 88.4,24.200000000000003 88.4,23.700000000000003 L 88.4,19.700000000000003 C 88.4,19.1 88.9,18.700000000000003 89.4,18.700000000000003 L 123.10000000000001,18.700000000000003 C 123.7,18.700000000000003 124.10000000000001,19.200000000000003 124.10000000000001,19.700000000000003 L 124.10000000000001,23.700000000000003 C 124.10000000000001,24.200000000000003 123.7,24.700000000000003 123.10000000000001,24.700000000000003 Z" fill="rgb(54, 72, 92)" stroke="rgba(255,255,255,0.01)"/><path d="M 123.6,106.1 L 88.9,106.1 C 88.60000000000001,106.1 88.4,105.89999999999999 88.4,105.6 L 88.4,105 C 88.4,104.7 88.60000000000001,104.5 88.9,104.5 L 123.60000000000001,104.5 C 123.9,104.5 124.10000000000001,104.7 124.10000000000001,105 L 124.10000000000001,105.5 C 124.10000000000001,105.9 123.9,106.1 123.60000000000001,106.1 Z" fill="rgb(42, 110, 209)" stroke="rgba(255,255,255,0.01)"/><path d="M 82.1,78 L 130,78 L 130,79 L 82.1,79 Z M 82.1,14 L 130,14 L 130,15 L 82.1,15 Z" fill="rgb(73, 90, 94)" stroke="rgba(255,255,255,0.01)"/><path d="M 103.7,57.8 C 103.7,59.87846096908265 105.86666666666667,61.17749907475931 107.60000000000001,60.13826859021798 C 108.40444279957212,59.655960043841965 108.9,58.76461709275204 108.9,57.8 C 108.9,55.72153903091734 106.73333333333335,54.42250092524068 105.00000000000001,55.46173140978201 C 104.1955572004279,55.94403995615803 103.7,56.835382907247954 103.7,57.8" fill="rgb(42, 110, 209)" stroke="rgba(255,255,255,0.01)"/><path d="M 52.3,100.5 L 45.5,100.5 C 44.4,100.5 43.5,99.6 43.5,98.5 L 43.5,86.7 C 43.5,85.60000000000001 44.4,84.7 45.5,84.7 L 52.3,84.7 C 53.4,84.7 54.3,85.60000000000001 54.3,86.7 L 54.3,98.5 C 54.3,99.6 53.4,100.5 52.3,100.5 Z" fill="rgb(27, 46, 61)" stroke="rgba(255,255,255,0.01)"/><path d="M 96.9,91 L 0.8,91 C 0.20000000000000007,91 -0.19999999999999996,90.5 -0.19999999999999996,90 L -0.19999999999999996,30 C -0.19999999999999996,29.4 0.30000000000000004,29 0.8,29 L 96.89999999999999,29 C 97.49999999999999,29 97.89999999999999,29.5 97.89999999999999,30 L 97.89999999999999,90 C 97.89999999999999,90.6 97.49999999999999,91 96.89999999999999,91 Z" fill="rgb(50, 69, 86)" stroke="rgba(255,255,255,0.01)"/><path d="M 95.1,89 L 2.7,89 C 2.1,89 1.7000000000000002,88.5 1.7000000000000002,88 L 1.7000000000000002,32.1 C 1.7000000000000002,31.5 2.2,31.1 2.7,31.1 L 95.10000000000001,31.1 C 95.7,31.1 96.10000000000001,31.6 96.10000000000001,32.1 L 96.10000000000001,88 C 96.10000000000001,88.5 95.60000000000001,89 95.10000000000001,89 Z" fill="rgb(220, 241, 249)" stroke="rgba(255,255,255,0.01)"/><path d="M 71,102.3 L 26.8,102.3 C 26.1,102.3 25.5,101.7 25.5,101 L 25.5,100.5 C 25.5,99.8 26.1,99.2 26.8,99.2 L 71,99.2 C 71.7,99.2 72.3,99.8 72.3,100.5 L 72.3,101 C 72.3,101.7 71.7,102.3 71,102.3 Z" fill="rgb(34, 38, 40)" stroke="rgba(255,255,255,0.01)"/><path d="M 71.6,101.5 L 26.1,101.5 C 25.700000000000003,101.5 25.400000000000002,101.2 25.400000000000002,100.8 L 25.400000000000002,99.39999999999999 C 25.400000000000002,98.99999999999999 25.700000000000003,98.69999999999999 26.1,98.69999999999999 L 71.6,98.69999999999999 C 72,98.69999999999999 72.3,98.99999999999999 72.3,99.39999999999999 L 72.3,100.8 C 72.3,101.2 72,101.5 71.6,101.5 Z" fill="rgb(50, 69, 86)" stroke="rgba(255,255,255,0.01)"/></g><g transform="translate(485, 420) rotate(0, 0, 0)" width="0" height="36"><text text-decoration="none" x="0" fill="#4b4b4b" font-size="10pt" font-family="noto_regular"  y="15"></text></g></g><g id="ZRGXdIORhHP"><g transform="translate(1040 310)"><rect x="0" y="0" width="110" height="100" fill="rgba(255,255,255,0.01)" stroke="rgba(255,255,255,0.01)"/><path d="M 68.3,86 L 62.3,86 C 61.9,86 61.699999999999996,85.6 61.4,85.3 C 58.3,81.3 57.8,79.1 58.5,70.39999999999999 C 58.5,69.89999999999999 58,69.6 57.5,69.69999999999999 C 54,70.39999999999999 50.5,70.49999999999999 47.1,69.79999999999998 C 46.6,69.69999999999999 46.1,69.99999999999999 46.1,70.49999999999999 C 46.5,79.29999999999998 46,81.49999999999999 43.2,85.29999999999998 C 42.900000000000006,85.59999999999998 42.800000000000004,85.99999999999999 42.300000000000004,85.99999999999999 L 35.6,85.99999999999999 C 34.7,85.99999999999999 34.1,85.49999999999999 34.1,86.39999999999999 L 34.1,86.69999999999999 C 34.1,87.79999999999998 34.9,87.99999999999999 36,87.99999999999999 L 68.3,87.99999999999999 C 69.39999999999999,87.99999999999999 70.1,87.49999999999999 70.1,86.49999999999999 L 70.1,86.59999999999998 C 70,85.59999999999998 69.3,85.99999999999999 68.3,85.99999999999999 Z" fill="rgb(163, 163, 163)" stroke="rgba(255,255,255,0.01)"/><path d="M 62.2,86 L 68.2,86 C 69.2,86 70,85.6 70,86.6 L 70,86.5 C 70,87.6 69.2,88 68.1,88 L 35.8,88 C 34.699999999999996,88 34,87.7 34,86.7 L 34,86.4 C 34,85.5 34.6,86 35.4,86 L 62.2,86 Z" fill="rgb(127, 127, 127)" stroke="rgba(255,255,255,0.01)"/><path d="M 100.3,74.2 L 4,74.2 C 1.7999999999999998,74.2 0,72.4 0,70.2 L 0,4 C 0,1.7999999999999998 1.8,0 4,0 L 100.3,0 C 102.5,0 104.3,1.8 104.3,4 L 104.3,70.2 C 104.3,72.5 102.5,74.2 100.3,74.2 Z" fill="rgb(183, 183, 183)" stroke="rgba(255,255,255,0.01)"/><path d="M 104.3,66.3 L 0,66.3 L 0,4.2 C 0,1.9 1.9,0 4.2,0 L 100.7,0 C 102.7,0 104.2,1.6 104.2,3.5 L 104.2,66.3 Z" fill="rgb(49, 51, 61)" stroke="rgba(255,255,255,0.01)"/><path d="M 7.3,99.1 L 15.600000000000001,91.69999999999999 C 16.200000000000003,91.39999999999999 17.1,90.99999999999999 17.400000000000002,90.99999999999999 L 85.4,90.99999999999999 C 85.80000000000001,90.99999999999999 86.5,91.29999999999998 87,91.59999999999998 L 93.6,98.99999999999999 L 7,98.99999999999999" fill="rgb(216, 216, 216)" stroke="rgba(255,255,255,0.01)"/><path d="M 76.2,97.7 L 27.8,97.7 C 27.400000000000002,97.7 27,97.4 27,96.9 L 27,96.80000000000001 C 27,96.4 27.3,96.00000000000001 27.8,96.00000000000001 L 76.3,96.00000000000001 C 76.7,96.00000000000001 77.1,96.30000000000001 77.1,96.80000000000001 L 77.1,96.9 C 77,97.30000000000001 76.69999999999999,97.7 76.19999999999999,97.7 Z M -51.7,99.1 L -56.2,99.1 C -56.6,99.1 -57,98.8 -57,98.3 L -57,98.2 C -57,97.8 -56.7,97.4 -56.2,97.4 L -51.7,97.4 C -51.300000000000004,97.4 -50.900000000000006,97.7 -50.900000000000006,98.2 L -50.900000000000006,98.3 C -50.900000000000006,98.7 -51.2,99.1 -51.7,99.1 Z M -45.2,95.89999999999999 C -45.2,96.1 -45.300000000000004,96.39999999999999 -45.5,96.39999999999999 L -52.3,96.39999999999999 C -52.4,96.39999999999999 -52.599999999999994,96.1 -52.599999999999994,95.89999999999999 C -52.599999999999994,95.69999999999999 -52.49999999999999,95.39999999999999 -52.3,95.39999999999999 L -45.5,95.39999999999999 C -45.3,95.39999999999999 -45.2,95.69999999999999 -45.2,95.89999999999999 Z M 18,95.89999999999999 C 18,96.1 17.9,96.39999999999999 17.7,96.39999999999999 L 10.899999999999999,96.39999999999999 C 10.799999999999999,96.39999999999999 10.599999999999998,96.1 10.599999999999998,95.89999999999999 C 10.599999999999998,95.69999999999999 10.699999999999998,95.39999999999999 10.899999999999999,95.39999999999999 L 17.7,95.39999999999999 C 17.9,95.39999999999999 18,95.69999999999999 18,95.89999999999999 Z M -40.4,95.89999999999999 C -40.4,96.1 -40.5,96.39999999999999 -40.699999999999996,96.39999999999999 L -44.4,96.39999999999999 C -44.5,96.39999999999999 -44.699999999999996,96.1 -44.699999999999996,95.89999999999999 C -44.699999999999996,95.69999999999999 -44.599999999999994,95.39999999999999 -44.4,95.39999999999999 L -40.699999999999996,95.39999999999999 C -40.49999999999999,95.39999999999999 -40.4,95.69999999999999 -40.4,95.89999999999999 Z M -35.699999999999996,95.89999999999999 C -35.699999999999996,96.1 -35.8,96.39999999999999 -35.99999999999999,96.39999999999999 L -39.699999999999996,96.39999999999999 C -39.8,96.39999999999999 -39.99999999999999,96.1 -39.99999999999999,95.89999999999999 C -39.99999999999999,95.69999999999999 -39.89999999999999,95.39999999999999 -39.699999999999996,95.39999999999999 L 33,95.39999999999999 C 33.1,95.39999999999999 33.2,95.69999999999999 33.2,95.89999999999999 Z M -29.399999999999995,95.89999999999999 C -29.399999999999995,96.1 -29.499999999999996,96.39999999999999 -29.699999999999996,96.39999999999999 L -33.4,96.39999999999999 C -33.5,96.39999999999999 -33.699999999999996,96.1 -33.699999999999996,95.89999999999999 C -33.699999999999996,95.69999999999999 -33.599999999999994,95.39999999999999 -33.4,95.39999999999999 L -29.7,95.39999999999999 C -29.5,95.39999999999999 -29.4,95.69999999999999 -29.4,95.89999999999999 Z M -24.599999999999994,95.89999999999999 C -24.599999999999994,96.1 -24.699999999999996,96.39999999999999 -24.899999999999995,96.39999999999999 L -28.599999999999994,96.39999999999999 C -28.699999999999996,96.39999999999999 -28.899999999999995,96.1 -28.899999999999995,95.89999999999999 C -28.899999999999995,95.69999999999999 -28.799999999999994,95.39999999999999 -28.599999999999994,95.39999999999999 L 44,95.39999999999999 C 44.2,95.39999999999999 44.3,95.69999999999999 44.3,95.89999999999999 Z M -18.299999999999994,95.89999999999999 C -18.299999999999994,96.1 -18.399999999999995,96.39999999999999 -18.599999999999994,96.39999999999999 L -22.299999999999994,96.39999999999999 C -22.399999999999995,96.39999999999999 -22.599999999999994,96.1 -22.599999999999994,95.89999999999999 C -22.599999999999994,95.69999999999999 -22.499999999999993,95.39999999999999 -22.299999999999994,95.39999999999999 L -18.599999999999994,95.39999999999999 C -18.399999999999995,95.39999999999999 -18.299999999999994,95.69999999999999 -18.299999999999994,95.89999999999999 Z M -12.499999999999993,95.89999999999999 C -12.499999999999993,96.1 -12.599999999999993,96.39999999999999 -12.799999999999994,96.39999999999999 L -16.499999999999993,96.39999999999999 C -16.599999999999994,96.39999999999999 -16.799999999999994,96.1 -16.799999999999994,95.89999999999999 C -16.799999999999994,95.69999999999999 -16.699999999999992,95.39999999999999 -16.499999999999993,95.39999999999999 L -12.799999999999994,95.39999999999999 C -12.599999999999994,95.39999999999999 -12.499999999999993,95.69999999999999 -12.499999999999993,95.89999999999999 Z M -7.199999999999993,95.89999999999999 C -7.199999999999993,96.1 -7.299999999999993,96.39999999999999 -7.499999999999993,96.39999999999999 L -11.199999999999992,96.39999999999999 C -11.299999999999992,96.39999999999999 -11.499999999999993,96.1 -11.499999999999993,95.89999999999999 C -11.499999999999993,95.69999999999999 -11.399999999999993,95.39999999999999 -11.199999999999992,95.39999999999999 L -7.499999999999992,95.39999999999999 C -7.399999999999992,95.39999999999999 -7.199999999999992,95.69999999999999 -7.199999999999992,95.89999999999999 Z M -1.3999999999999932,95.89999999999999 C -1.3999999999999932,96.1 -1.4999999999999933,96.39999999999999 -1.6999999999999933,96.39999999999999 L -5.399999999999993,96.39999999999999 C -5.499999999999993,96.39999999999999 -5.699999999999993,96.1 -5.699999999999993,95.89999999999999 C -5.699999999999993,95.69999999999999 -5.599999999999993,95.39999999999999 -5.399999999999993,95.39999999999999 L -1.699999999999993,95.39999999999999 C -1.599999999999993,95.39999999999999 -1.399999999999993,95.69999999999999 -1.399999999999993,95.89999999999999 Z M 3.300000000000007,95.89999999999999 C 3.300000000000007,96.1 3.200000000000007,96.39999999999999 3.000000000000007,96.39999999999999 L -0.6999999999999931,96.39999999999999 C -0.799999999999993,96.39999999999999 -0.9999999999999931,96.1 -0.9999999999999931,95.89999999999999 C -0.9999999999999931,95.69999999999999 -0.8999999999999931,95.39999999999999 -0.6999999999999931,95.39999999999999 L 3.000000000000007,95.39999999999999 C 3.2000000000000073,95.39999999999999 3.300000000000007,95.69999999999999 3.300000000000007,95.89999999999999 Z M 9.600000000000007,95.89999999999999 C 9.600000000000007,96.1 9.500000000000007,96.39999999999999 9.300000000000006,96.39999999999999 L 5.600000000000006,96.39999999999999 C 5.500000000000006,96.39999999999999 5.300000000000006,96.1 5.300000000000006,95.89999999999999 C 5.300000000000006,95.69999999999999 5.400000000000006,95.39999999999999 5.600000000000006,95.39999999999999 L 9.300000000000006,95.39999999999999 C 9.500000000000005,95.39999999999999 9.600000000000007,95.69999999999999 9.600000000000007,95.89999999999999 Z M -46.19999999999999,93.89999999999999 C -46.19999999999999,93.99999999999999 -46.29999999999999,94.39999999999999 -46.499999999999986,94.39999999999999 L -49.09999999999999,94.39999999999999 C -49.19999999999999,94.39999999999999 -49.399999999999984,93.99999999999999 -49.399999999999984,93.89999999999999 C -49.399999999999984,93.8 -49.29999999999998,93.39999999999999 -49.09999999999999,93.39999999999999 L -46.499999999999986,93.39999999999999 C -46.29999999999998,93.39999999999999 -46.19999999999999,93.8 -46.19999999999999,93.89999999999999 Z M -41.999999999999986,93.89999999999999 C -41.999999999999986,93.99999999999999 -42.09999999999999,94.39999999999999 -42.29999999999998,94.39999999999999 L 24,94.39999999999999 C 23.9,94.39999999999999 23.7,93.99999999999999 23.7,93.89999999999999 C 23.7,93.8 23.8,93.39999999999999 24,93.39999999999999 L 26.6,93.39999999999999 C 26.8,93.39999999999999 26.900000000000002,93.8 26.900000000000002,93.89999999999999 Z M -37.29999999999998,93.89999999999999 C -37.29999999999998,93.99999999999999 -37.399999999999984,94.39999999999999 -37.59999999999998,94.39999999999999 L -40.19999999999998,94.39999999999999 C -40.29999999999998,94.39999999999999 -40.49999999999998,93.99999999999999 -40.49999999999998,93.89999999999999 C -40.49999999999998,93.8 -40.39999999999998,93.39999999999999 -40.19999999999998,93.39999999999999 L -37.59999999999998,93.39999999999999 C -37.39999999999998,93.39999999999999 -37.29999999999998,93.8 -37.29999999999998,93.89999999999999 Z M -32.999999999999986,93.89999999999999 C -32.999999999999986,93.99999999999999 -33.09999999999999,94.39999999999999 -33.29999999999998,94.39999999999999 L 33,94.39999999999999 C 32.9,94.39999999999999 32.7,93.99999999999999 32.7,93.89999999999999 C 32.7,93.8 32.800000000000004,93.39999999999999 33,93.39999999999999 L 35.6,93.39999999999999 C 35.7,93.39999999999999 35.9,93.8 35.9,93.89999999999999 Z M -27.799999999999986,93.89999999999999 C -27.799999999999986,93.99999999999999 -27.899999999999988,94.39999999999999 -28.099999999999987,94.39999999999999 L -30.69999999999999,94.39999999999999 C -30.79999999999999,94.39999999999999 -30.99999999999999,93.99999999999999 -30.99999999999999,93.89999999999999 C -30.99999999999999,93.8 -30.899999999999988,93.39999999999999 -30.69999999999999,93.39999999999999 L -28.099999999999987,93.39999999999999 C -27.899999999999988,93.39999999999999 -27.799999999999986,93.8 -27.799999999999986,93.89999999999999 Z M -23.599999999999987,93.89999999999999 C -23.599999999999987,93.99999999999999 -23.69999999999999,94.39999999999999 -23.899999999999988,94.39999999999999 L -26.49999999999999,94.39999999999999 C -26.59999999999999,94.39999999999999 -26.79999999999999,93.99999999999999 -26.79999999999999,93.89999999999999 C -26.79999999999999,93.8 -26.69999999999999,93.39999999999999 -26.49999999999999,93.39999999999999 L 45,93.39999999999999 C 45.2,93.39999999999999 45.3,93.8 45.3,93.89999999999999 Z M -19.399999999999988,93.89999999999999 C -19.399999999999988,93.99999999999999 -19.49999999999999,94.39999999999999 -19.69999999999999,94.39999999999999 L -22.29999999999999,94.39999999999999 C -22.39999999999999,94.39999999999999 -22.59999999999999,93.99999999999999 -22.59999999999999,93.89999999999999 C -22.59999999999999,93.8 -22.49999999999999,93.39999999999999 -22.29999999999999,93.39999999999999 L -19.69999999999999,93.39999999999999 C -19.49999999999999,93.39999999999999 -19.399999999999988,93.8 -19.399999999999988,93.89999999999999 Z M -14.599999999999987,93.89999999999999 C -14.599999999999987,93.99999999999999 -14.699999999999987,94.39999999999999 -14.899999999999988,94.39999999999999 L -17.49999999999999,94.39999999999999 C -17.59999999999999,94.39999999999999 -17.79999999999999,93.99999999999999 -17.79999999999999,93.89999999999999 C -17.79999999999999,93.8 -17.69999999999999,93.39999999999999 -17.49999999999999,93.39999999999999 L 54,93.39999999999999 C 54.2,93.39999999999999 54.3,93.8 54.3,93.89999999999999 Z M -9.899999999999988,93.89999999999999 C -9.899999999999988,93.99999999999999 -9.999999999999988,94.39999999999999 -10.199999999999989,94.39999999999999 L -12.799999999999988,94.39999999999999 C -12.899999999999988,94.39999999999999 -13.099999999999989,93.99999999999999 -13.099999999999989,93.89999999999999 C -13.099999999999989,93.8 -12.99999999999999,93.39999999999999 -12.799999999999988,93.39999999999999 L -10.199999999999989,93.39999999999999 C -9.99999999999999,93.39999999999999 -9.899999999999988,93.8 -9.899999999999988,93.89999999999999 Z M -5.099999999999988,93.89999999999999 C -5.099999999999988,93.99999999999999 -5.199999999999988,94.39999999999999 -5.399999999999988,94.39999999999999 L -7.999999999999988,94.39999999999999 C -8.099999999999987,94.39999999999999 -8.299999999999988,93.99999999999999 -8.299999999999988,93.89999999999999 C -8.299999999999988,93.8 -8.199999999999989,93.39999999999999 -7.9999999999999885,93.39999999999999 L -5.399999999999988,93.39999999999999 C -5.299999999999988,93.39999999999999 -5.099999999999988,93.8 -5.099999999999988,93.89999999999999 Z M -0.8999999999999879,93.89999999999999 C -0.8999999999999879,93.99999999999999 -0.9999999999999879,94.39999999999999 -1.199999999999988,94.39999999999999 L -3.7999999999999883,94.39999999999999 C -3.8999999999999884,94.39999999999999 -4.099999999999988,93.99999999999999 -4.099999999999988,93.89999999999999 C -4.099999999999988,93.8 -3.999999999999988,93.39999999999999 -3.7999999999999883,93.39999999999999 L -1.1999999999999882,93.39999999999999 C -0.9999999999999882,93.39999999999999 -0.8999999999999881,93.8 -0.8999999999999881,93.89999999999999 Z M 4.300000000000012,93.89999999999999 C 4.300000000000012,93.99999999999999 4.200000000000013,94.39999999999999 4.000000000000012,94.39999999999999 L 1.4000000000000123,94.39999999999999 C 1.3000000000000123,94.39999999999999 1.1000000000000123,93.99999999999999 1.1000000000000123,93.89999999999999 C 1.1000000000000123,93.8 1.2000000000000124,93.39999999999999 1.4000000000000123,93.39999999999999 L 73,93.39999999999999 C 73.1,93.39999999999999 73.2,93.8 73.2,93.89999999999999 Z M 8.600000000000012,93.89999999999999 C 8.600000000000012,93.99999999999999 8.500000000000012,94.39999999999999 8.300000000000011,94.39999999999999 L 5.700000000000012,94.39999999999999 C 5.600000000000012,94.39999999999999 5.400000000000012,93.99999999999999 5.400000000000012,93.89999999999999 C 5.400000000000012,93.8 5.5000000000000115,93.39999999999999 5.700000000000012,93.39999999999999 L 8.300000000000011,93.39999999999999 C 8.400000000000011,93.39999999999999 8.600000000000012,93.8 8.600000000000012,93.89999999999999 Z M 12.800000000000011,93.89999999999999 C 12.800000000000011,93.99999999999999 12.700000000000012,94.39999999999999 12.50000000000001,94.39999999999999 L 9.900000000000011,94.39999999999999 C 9.800000000000011,94.39999999999999 9.60000000000001,93.99999999999999 9.60000000000001,93.89999999999999 C 9.60000000000001,93.8 9.70000000000001,93.39999999999999 9.900000000000011,93.39999999999999 L 12.50000000000001,93.39999999999999 C 12.70000000000001,93.39999999999999 12.800000000000011,93.8 12.800000000000011,93.89999999999999 Z M -44.19999999999999,99.1 L -48.69999999999999,99.1 C -49.09999999999999,99.1 -49.499999999999986,98.8 -49.499999999999986,98.3 L -49.499999999999986,98.2 C -49.499999999999986,97.8 -49.19999999999999,97.4 -48.69999999999999,97.4 L -44.19999999999999,97.4 C -43.79999999999999,97.4 -43.39999999999999,97.7 -43.39999999999999,98.2 L -43.39999999999999,98.3 C -43.39999999999999,98.7 -43.69999999999999,99.1 -44.19999999999999,99.1 Z M 13.300000000000011,99.1 L 9.800000000000011,99.1 C 9.400000000000011,99.1 9.00000000000001,98.8 9.00000000000001,98.3 L 9.00000000000001,98.2 C 9.00000000000001,97.8 9.300000000000011,97.4 9.800000000000011,97.4 L 13.300000000000011,97.4 C 13.700000000000012,97.4 14.100000000000012,97.7 14.100000000000012,98.2 L 14.100000000000012,98.3 C 14.100000000000012,98.7 13.800000000000011,99.1 13.300000000000011,99.1 Z M 19.30000000000001,99.1 L 15.800000000000011,99.1 C 15.400000000000011,99.1 15.00000000000001,98.8 15.00000000000001,98.3 L 15.00000000000001,98.2 C 15.00000000000001,97.8 15.300000000000011,97.4 15.800000000000011,97.4 L 19.30000000000001,97.4 C 19.70000000000001,97.4 20.100000000000012,97.7 20.100000000000012,98.2 L 20.100000000000012,98.3 C 20.100000000000012,98.7 19.80000000000001,99.1 19.30000000000001,99.1 Z" fill="rgb(255, 255, 255)" stroke="rgba(255,255,255,0.01)"/><path d="M 3,6 L 100,6 L 100,62 L 3,62 Z" fill="rgb(248, 253, 255)" stroke="rgba(255,255,255,0.01)"/><path d="M 51.3,3.2 C 51.299999976290145,3.73886025124365 51.88333329480483,4.075647934169011 52.34999997332642,3.8062178290805186 C 52.56658075161837,3.681174871138435 52.70000001100378,3.450085934943275 52.699999999999996,3.2 C 52.70000002370985,2.66113974875635 52.11666670519517,2.3243520658309897 51.65000002667358,2.5937821709194813 C 51.43341924838163,2.718825128861565 51.29999998899621,2.9499140650567255 51.3,3.2" fill="rgb(168, 174, 175)" stroke="rgba(255,255,255,0.01)"/><path d="M 92.5,100 L 8.4,100 C 7.9,100 7.4,99.6 7.4,99 L 93.5,99 C 93.5,99.5 93.1,100 92.5,100 Z" fill="rgb(187, 188, 188)" stroke="rgba(255,255,255,0.01)"/><path d="M 93.2,92.9 C 93.2,92.9 93.3,91.80000000000001 96.60000000000001,91.80000000000001 C 98.00000000000001,91.80000000000001 98.9,92.60000000000001 100.7,93.50000000000001 C 100.7,93.50000000000001 102.4,94.50000000000001 105.7,94.50000000000001 C 109.10000000000001,94.50000000000001 109.7,94.20000000000002 109.8,94.10000000000001 C 109.8,94.10000000000001 109.8,95.00000000000001 107.39999999999999,95.2 C 105.8,95.3 99.49999999999999,94.7 97.89999999999999,94.60000000000001 C 96.3,94.50000000000001 93.8,94.30000000000001 93.3,93.00000000000001" fill="rgb(181, 181, 181)" stroke="rgba(255,255,255,0.01)"/><path d="M 93.3,92.8 C 93.3,92.8 94,91.1 98.39999999999999,91 C 102.79999999999998,90.9 104.1,91 107.1,91.6 C 108,91.8 110.19999999999999,92.5 110.1,93.69999999999999 C 110,94.89999999999999 108.39999999999999,95.1 107.39999999999999,95.1 C 107.39999999999999,95.1 104.19999999999999,95 102.89999999999999,94.5 C 101.49999999999999,94 98.69999999999999,92.3 97.19999999999999,92 C 95.79999999999998,91.6 94.29999999999998,91.8 93.29999999999998,92.8 Z" fill="rgb(219, 219, 219)" stroke="rgba(255,255,255,0.01)"/><path d="M 98.8,92.6 C 98.2,92.3 97.6,92.1 97.1,91.89999999999999 C 95.89999999999999,91.6 94.39999999999999,91.8 93.3,92.69999999999999 C 93.3,92.69999999999999 94,90.99999999999999 98.39999999999999,90.89999999999999 C 100.6,90.8 101.99999999999999,90.8 103.19999999999999,90.89999999999999 C 103.19999999999999,90.89999999999999 99.29999999999998,90.8 98.19999999999999,91.19999999999999 C 97.1,91.59999999999998 98.79999999999998,92.6 98.79999999999998,92.6 Z" fill="rgb(234, 234, 234)" stroke="rgba(255,255,255,0.01)"/></g><g transform="translate(1095, 420) rotate(0, 0, 0)" width="0" height="36"><text text-decoration="none" x="0" fill="#4b4b4b" font-size="10pt" font-family="noto_regular"  y="15"></text></g></g><g id="xBlKhy4dJfG"><g transform="translate(730 500)"><rect x="0" y="0" width="140" height="85" fill="rgba(255,255,255,0.01)" stroke="rgba(255,255,255,0.01)"/><path d="M 104.2,82.4 L 103.3,83 L 36.1,83 L 36.2,83.4" fill="rgb(192, 195, 204)" stroke="rgba(255,255,255,0.01)"/><path d="M 72.2,83 L 71.10000000000001,83 L 0.10000000000000853,82.4 L 0.8000000000000085,83.30000000000001 L 2.200000000000008,84.80000000000001 C 2.3000000000000083,85.00000000000001 2.700000000000008,85.00000000000001 3.000000000000008,85.00000000000001 L 137,85.00000000000001 C 137.3,85.00000000000001 137.7,84.80000000000001 137.9,84.60000000000001 L 139.3,83.4 L 140,82.7 L 72.2,83 Z" fill="rgb(155, 165, 168)" stroke="rgba(255,255,255,0.01)"/><path d="M 76.5,83 C 76.5,83 76,84 75.4,84 L 64.9,84 C 64.30000000000001,84 63.800000000000004,83 63.800000000000004,83 L 76.5,83 Z" fill="rgb(119, 129, 132)" stroke="rgba(255,255,255,0.01)"/><path d="M 121.4,64 L 19.6,64 C 17.900000000000002,64 17,63.1 17,61.5 L 17,1.7 C 17,0.7 17.7,0 18.7,0 L 122.4,0 C 123.30000000000001,0 124,0.7 124,1.5 L 124,61.4 C 124,63.1 123.1,64 121.4,64 Z" fill="rgb(50, 71, 90)" stroke="rgba(255,255,255,0.01)"/><path d="M 139,83 L 1,83 C -0.10000000000000009,83 -0.3999999999999999,81.9 0.5,80.9 C 4.9,75.7 10.2,70.7 14.6,65.5 C 15.4,64.5 16.8,64 17.7,64 L 122.4,64 C 123.30000000000001,64 124.60000000000001,64.4 125.5,65.4 C 129.9,70.60000000000001 135.2,75.9 139.6,81.10000000000001 C 140.29999999999998,82.10000000000001 140.1,83.00000000000001 139,83.00000000000001 Z" fill="rgb(187, 196, 203)" stroke="rgba(255,255,255,0.01)"/><path d="M 119.8,61 L 19.799999999999997,61 L 19.799999999999997,6 L 119.8,6 L 119.8,61 Z" fill="rgb(220, 241, 249)" stroke="rgba(255,255,255,0.01)"/><path d="M 69,2.8 C 69,3.5698003589195006 69.83333333333333,4.050925583244189 70.5,3.6660254037844386 C 70.8094010767585,3.4873926088303566 71,3.1572655899081634 71,2.8 C 71,2.030199641080499 70.16666666666667,1.5490744167558108 69.5,1.933974596215561 C 69.1905989232415,2.112607391169643 69,2.4427344100918362 69,2.8" fill="rgb(71, 100, 114)" stroke="rgba(255,255,255,0.01)"/><path d="M 24.5,66.1 C 24.4,66.19999999999999 24.2,66.3 24.1,66.3 L 18.8,66.3 C 18.7,66.3 18.7,66.2 18.8,66.1 C 19,65.89999999999999 19.1,65.69999999999999 19.3,65.39999999999999 C 19.400000000000002,65.3 19.6,65.19999999999999 19.7,65.19999999999999 L 24.9,65.19999999999999 C 25,65.19999999999999 25,65.29999999999998 25,65.39999999999999 C 24.8,65.6 24.6,65.8 24.5,66.1 Z M 32.2,66.1 C 32.1,66.19999999999999 32,66.3 31.800000000000004,66.3 L 26.500000000000004,66.3 C 26.400000000000002,66.3 26.300000000000004,66.2 26.400000000000002,66.1 C 26.500000000000004,65.89999999999999 26.700000000000003,65.69999999999999 26.8,65.39999999999999 C 26.900000000000002,65.3 27.1,65.19999999999999 27.2,65.19999999999999 L 32.4,65.19999999999999 C 32.5,65.19999999999999 32.6,65.29999999999998 32.5,65.39999999999999 C 32.5,65.6 32.4,65.8 32.2,66.1 Z M 39.5,66.1 C 39.4,66.19999999999999 39.3,66.3 39.2,66.3 L 33.900000000000006,66.3 C 33.800000000000004,66.3 33.7,66.2 33.800000000000004,66.1 C 33.900000000000006,65.89999999999999 34.00000000000001,65.69999999999999 34.2,65.39999999999999 C 34.300000000000004,65.3 34.400000000000006,65.19999999999999 34.5,65.19999999999999 L 39.7,65.19999999999999 C 39.800000000000004,65.19999999999999 39.900000000000006,65.29999999999998 39.800000000000004,65.39999999999999 C 39.7,65.6 39.6,65.8 39.50000000000001,66.1 Z M 47.3,66.1 C 47.3,66.19999999999999 47.099999999999994,66.3 47,66.3 L 41.7,66.3 C 41.6,66.3 41.5,66.2 41.6,66.1 C 41.7,65.89999999999999 41.800000000000004,65.69999999999999 41.9,65.39999999999999 C 42,65.3 42.1,65.19999999999999 42.199999999999996,65.19999999999999 L 47.4,65.19999999999999 C 47.5,65.19999999999999 47.6,65.29999999999998 47.5,65.39999999999999 C 47.4,65.6 47.4,65.8 47.3,66.1 Z M 55.099999999999994,66.1 C 55.099999999999994,66.19999999999999 54.89999999999999,66.3 54.8,66.3 L 49.5,66.3 C 49.4,66.3 49.3,66.2 49.4,66.1 C 49.5,65.89999999999999 49.5,65.69999999999999 49.6,65.39999999999999 C 49.6,65.3 49.800000000000004,65.19999999999999 49.9,65.19999999999999 L 55.1,65.19999999999999 C 55.2,65.19999999999999 55.300000000000004,65.29999999999998 55.300000000000004,65.39999999999999 C 55.2,65.6 55.1,65.8 55.1,66.1 Z M 62.8,66.1 C 62.8,66.19999999999999 62.699999999999996,66.3 62.5,66.3 L 57.2,66.3 C 57.1,66.3 57,66.2 57,66.1 C 57,65.89999999999999 57.1,65.69999999999999 57.1,65.39999999999999 C 57.1,65.3 57.2,65.19999999999999 57.4,65.19999999999999 L 62.6,65.19999999999999 C 62.7,65.19999999999999 62.800000000000004,65.29999999999998 62.800000000000004,65.39999999999999 C 62.900000000000006,65.6 62.900000000000006,65.8 62.800000000000004,66.1 Z M 70.1,66.1 C 70.1,66.19999999999999 70,66.3 69.89999999999999,66.3 L 64.6,66.3 C 64.5,66.3 64.39999999999999,66.2 64.39999999999999,66.1 C 64.39999999999999,65.89999999999999 64.39999999999999,65.69999999999999 64.49999999999999,65.39999999999999 C 64.49999999999999,65.3 64.59999999999998,65.19999999999999 64.69999999999999,65.19999999999999 L 69.89999999999999,65.19999999999999 C 69.99999999999999,65.19999999999999 70.1,65.29999999999998 70.1,65.39999999999999 L 70.1,66.1 Z M 77.89999999999999,66.1 C 77.89999999999999,66.19999999999999 77.8,66.3 77.69999999999999,66.3 L 72.39999999999999,66.3 C 72.3,66.3 72.19999999999999,66.2 72.19999999999999,66.1 L 72.19999999999999,65.39999999999999 C 72.19999999999999,65.3 72.29999999999998,65.19999999999999 72.39999999999999,65.19999999999999 L 77.6,65.19999999999999 C 77.69999999999999,65.19999999999999 77.8,65.29999999999998 77.8,65.39999999999999 C 77.8,65.6 77.8,65.8 77.89999999999999,66.1 Z M 85.6,66.1 C 85.6,66.19999999999999 85.6,66.3 85.39999999999999,66.3 L 80.1,66.3 C 80,66.3 79.89999999999999,66.2 79.8,66.1 C 79.8,65.89999999999999 79.7,65.69999999999999 79.7,65.39999999999999 C 79.7,65.3 79.8,65.19999999999999 79.9,65.19999999999999 L 85.10000000000001,65.19999999999999 C 85.2,65.19999999999999 85.30000000000001,65.29999999999998 85.4,65.39999999999999 C 85.5,65.6 85.60000000000001,65.8 85.60000000000001,66.1 Z M 92.89999999999999,66.1 C 92.89999999999999,66.19999999999999 92.89999999999999,66.3 92.8,66.3 L 87.5,66.3 C 87.4,66.3 87.3,66.2 87.2,66.1 C 87.2,65.89999999999999 87.10000000000001,65.69999999999999 87.10000000000001,65.39999999999999 C 87.10000000000001,65.3 87.10000000000001,65.19999999999999 87.30000000000001,65.19999999999999 L 92.50000000000001,65.19999999999999 C 92.60000000000001,65.19999999999999 92.80000000000001,65.29999999999998 92.80000000000001,65.39999999999999 C 92.80000000000001,65.6 92.80000000000001,65.8 92.9,66.1 Z M 100.69999999999999,66.1 C 100.79999999999998,66.19999999999999 100.69999999999999,66.3 100.6,66.3 L 95.3,66.3 C 95.2,66.3 95,66.2 95,66.1 C 94.9,65.89999999999999 94.9,65.69999999999999 94.8,65.39999999999999 C 94.8,65.3 94.8,65.19999999999999 94.89999999999999,65.19999999999999 L 100.1,65.19999999999999 C 100.19999999999999,65.19999999999999 100.39999999999999,65.29999999999998 100.39999999999999,65.39999999999999 C 100.49999999999999,65.6 100.6,65.8 100.69999999999999,66.1 Z M 108.39999999999999,66.1 C 108.49999999999999,66.19999999999999 108.39999999999999,66.3 108.3,66.3 L 103,66.3 C 102.9,66.3 102.7,66.2 102.7,66.1 C 102.60000000000001,65.89999999999999 102.5,65.69999999999999 102.4,65.39999999999999 C 102.30000000000001,65.3 102.4,65.19999999999999 102.5,65.19999999999999 L 107.7,65.19999999999999 C 107.8,65.19999999999999 108,65.29999999999998 108,65.39999999999999 C 108.2,65.6 108.3,65.8 108.4,66.1 Z M 115.69999999999999,66.1 C 115.79999999999998,66.19999999999999 115.79999999999998,66.3 115.6,66.3 L 110.3,66.3 C 110.2,66.3 110,66.2 109.89999999999999,66.1 C 109.8,65.89999999999999 109.69999999999999,65.69999999999999 109.49999999999999,65.39999999999999 C 109.39999999999999,65.3 109.49999999999999,65.19999999999999 109.59999999999998,65.19999999999999 L 114.79999999999998,65.19999999999999 C 114.89999999999998,65.19999999999999 115.09999999999998,65.29999999999998 115.19999999999999,65.39999999999999 C 115.39999999999999,65.6 115.6,65.8 115.69999999999999,66.1 Z M 123.49999999999999,66.1 C 123.59999999999998,66.19999999999999 123.59999999999998,66.3 123.49999999999999,66.3 L 118.19999999999999,66.3 C 118.1,66.3 117.89999999999999,66.2 117.79999999999998,66.1 C 117.69999999999999,65.89999999999999 117.49999999999999,65.69999999999999 117.39999999999998,65.39999999999999 C 117.29999999999998,65.3 117.29999999999998,65.19999999999999 117.49999999999997,65.19999999999999 L 122.69999999999997,65.19999999999999 C 122.79999999999997,65.19999999999999 122.99999999999997,65.29999999999998 123.09999999999998,65.39999999999999 C 123.19999999999997,65.6 123.29999999999998,65.8 123.49999999999999,66.1 Z M 23,68.3 C 22.9,68.5 22.7,68.6 22.5,68.6 L 17.1,68.6 C 17,68.6 16.900000000000002,68.5 17,68.3 C 17.3,67.89999999999999 17.6,67.5 17.9,67.2 C 18,67 18.2,66.9 18.4,66.9 L 23.599999999999998,66.9 C 23.7,66.9 23.799999999999997,67 23.7,67.2 C 23.5,67.5 23.2,67.9 23,68.3 Z M 31,68.3 C 30.9,68.5 30.7,68.6 30.6,68.6 L 25.200000000000003,68.6 C 25.1,68.6 25.000000000000004,68.5 25.1,68.3 C 25.3,67.89999999999999 25.6,67.5 25.8,67.2 C 25.900000000000002,67 26.1,66.9 26.2,66.9 L 31.4,66.9 C 31.5,66.9 31.599999999999998,67 31.5,67.2 C 31.4,67.5 31.2,67.9 31,68.3 Z M 38.5,68.3 C 38.4,68.5 38.3,68.6 38.1,68.6 L 32.7,68.6 C 32.6,68.6 32.5,68.5 32.6,68.3 C 32.800000000000004,67.89999999999999 33,67.5 33.2,67.2 C 33.300000000000004,67 33.5,66.9 33.6,66.9 L 38.800000000000004,66.9 C 38.900000000000006,66.9 39.00000000000001,67 38.900000000000006,67.2 C 38.800000000000004,67.5 38.7,67.9 38.50000000000001,68.3 Z M 46.5,68.3 C 46.4,68.5 46.3,68.6 46.1,68.6 L 40.7,68.6 C 40.6,68.6 40.5,68.5 40.6,68.3 C 40.800000000000004,67.89999999999999 40.9,67.5 41.1,67.2 C 41.2,67 41.300000000000004,66.9 41.5,66.9 L 46.7,66.9 C 46.800000000000004,66.9 46.900000000000006,67 46.900000000000006,67.2 C 46.800000000000004,67.5 46.60000000000001,67.9 46.50000000000001,68.3 Z M 54.5,68.3 C 54.5,68.5 54.3,68.6 54.2,68.6 L 48.800000000000004,68.6 C 48.7,68.6 48.6,68.5 48.6,68.3 C 48.7,67.89999999999999 48.800000000000004,67.5 49,67.2 C 49,67 49.2,66.9 49.4,66.9 L 54.6,66.9 C 54.7,66.9 54.800000000000004,67 54.800000000000004,67.2 C 54.7,67.5 54.6,67.9 54.50000000000001,68.3 Z M 62.6,68.3 C 62.6,68.5 62.4,68.6 62.300000000000004,68.6 L 56.900000000000006,68.6 C 56.800000000000004,68.6 56.7,68.5 56.7,68.3 C 56.800000000000004,67.89999999999999 56.900000000000006,67.5 56.900000000000006,67.2 C 56.900000000000006,67 57.10000000000001,66.9 57.2,66.9 L 62.400000000000006,66.9 C 62.50000000000001,66.9 62.60000000000001,67 62.60000000000001,67.2 C 62.70000000000001,67.5 62.60000000000001,67.9 62.60000000000001,68.3 Z M 70,68.3 C 70,68.5 69.9,68.6 69.7,68.6 L 64.3,68.6 C 64.2,68.6 64,68.5 64.1,68.3 C 64.1,67.89999999999999 64.19999999999999,67.5 64.19999999999999,67.2 C 64.19999999999999,67 64.29999999999998,66.9 64.49999999999999,66.9 L 69.69999999999999,66.9 C 69.79999999999998,66.9 69.99999999999999,67 69.99999999999999,67.2 C 70.09999999999998,67.5 70.09999999999998,67.9 69.99999999999999,68.3 Z M 78.1,68.3 C 78.1,68.5 78,68.6 77.89999999999999,68.6 L 72.49999999999999,68.6 C 72.39999999999999,68.6 72.19999999999999,68.5 72.19999999999999,68.3 L 72.19999999999999,67.2 C 72.19999999999999,67 72.29999999999998,66.9 72.49999999999999,66.9 L 77.69999999999999,66.9 C 77.79999999999998,66.9 77.99999999999999,67 77.99999999999999,67.2 C 77.99999999999999,67.5 77.99999999999999,67.9 78.09999999999998,68.3 Z M 86.1,68.3 C 86.1,68.5 86,68.6 85.89999999999999,68.6 L 80.49999999999999,68.6 C 80.39999999999999,68.6 80.19999999999999,68.5 80.19999999999999,68.3 C 80.19999999999999,67.89999999999999 80.1,67.5 80.1,67.2 C 80.1,67 80.19999999999999,66.9 80.3,66.9 L 85.5,66.9 C 85.6,66.9 85.8,67 85.8,67.2 C 85.89999999999999,67.5 86,67.9 86.1,68.3 Z M 93.6,68.3 C 93.6,68.5 93.6,68.6 93.39999999999999,68.6 L 88,68.6 C 87.9,68.6 87.7,68.5 87.7,68.3 C 87.60000000000001,67.89999999999999 87.5,67.5 87.4,67.2 C 87.4,67 87.5,66.9 87.60000000000001,66.9 L 92.80000000000001,66.9 C 92.9,66.9 93.10000000000001,67 93.10000000000001,67.2 C 93.30000000000001,67.5 93.50000000000001,67.9 93.60000000000001,68.3 Z M 101.6,68.3 C 101.69999999999999,68.5 101.6,68.6 101.5,68.6 L 96.1,68.6 C 96,68.6 95.8,68.5 95.69999999999999,68.3 C 95.6,67.89999999999999 95.39999999999999,67.5 95.29999999999998,67.2 C 95.19999999999999,67 95.29999999999998,66.9 95.49999999999999,66.9 L 100.69999999999999,66.9 C 100.79999999999998,66.9 100.99999999999999,67 101.1,67.2 C 101.3,67.5 101.39999999999999,67.9 101.6,68.3 Z M 109.6,68.3 C 109.69999999999999,68.5 109.6,68.6 109.5,68.6 L 104.1,68.6 C 104,68.6 103.8,68.5 103.69999999999999,68.3 C 103.49999999999999,67.89999999999999 103.39999999999999,67.5 103.19999999999999,67.2 C 103.1,67 103.19999999999999,66.9 103.29999999999998,66.9 L 108.49999999999999,66.9 C 108.59999999999998,66.9 108.79999999999998,67 108.89999999999999,67.2 C 109.19999999999999,67.5 109.39999999999999,67.9 109.6,68.3 Z M 117.1,68.3 C 117.19999999999999,68.5 117.19999999999999,68.6 117,68.6 L 111.6,68.6 C 111.5,68.6 111.3,68.5 111.19999999999999,68.3 C 110.99999999999999,67.89999999999999 110.79999999999998,67.5 110.6,67.2 C 110.5,67 110.6,66.9 110.69999999999999,66.9 L 115.89999999999999,66.9 C 115.99999999999999,66.9 116.19999999999999,67 116.3,67.2 C 116.6,67.5 116.89999999999999,67.9 117.1,68.3 Z M 125.1,68.3 C 125.19999999999999,68.5 125.19999999999999,68.6 125,68.6 L 119.6,68.6 C 119.5,68.6 119.19999999999999,68.5 119.1,68.3 C 118.8,67.89999999999999 118.6,67.5 118.3,67.2 C 118.2,67 118.2,66.9 118.39999999999999,66.9 L 123.6,66.9 C 123.69999999999999,66.9 124,67 124.1,67.2 C 124.6,67.5 124.89999999999999,67.9 125.1,68.3 Z M 21.4,70.6 C 21.299999999999997,70.8 21.099999999999998,70.89999999999999 20.9,70.89999999999999 L 15.399999999999999,70.89999999999999 C 15.2,70.89999999999999 15.2,70.8 15.299999999999999,70.6 C 15.6,70.19999999999999 15.899999999999999,69.8 16.2,69.5 C 16.3,69.3 16.5,69.2 16.7,69.2 L 22.1,69.2 C 22.200000000000003,69.2 22.3,69.3 22.200000000000003,69.5 C 22.000000000000004,69.8 21.700000000000003,70.2 21.400000000000002,70.6 Z M 29.7,70.6 C 29.599999999999998,70.8 29.4,70.89999999999999 29.3,70.89999999999999 L 23.8,70.89999999999999 C 23.6,70.89999999999999 23.6,70.8 23.7,70.6 C 23.9,70.19999999999999 24.2,69.8 24.4,69.5 C 24.5,69.3 24.7,69.2 24.9,69.2 L 30.299999999999997,69.2 C 30.4,69.2 30.499999999999996,69.3 30.4,69.5 C 30.2,69.8 29.9,70.2 29.7,70.6 Z M 37.5,70.6 C 37.4,70.8 37.2,70.89999999999999 37.1,70.89999999999999 L 31.6,70.89999999999999 C 31.400000000000002,70.89999999999999 31.400000000000002,70.8 31.5,70.6 C 31.7,70.19999999999999 31.9,69.8 32.1,69.5 C 32.2,69.3 32.4,69.2 32.5,69.2 L 37.9,69.2 C 38,69.2 38.1,69.3 38,69.5 C 37.8,69.8 37.6,70.2 37.5,70.6 Z M 45.7,70.6 C 45.6,70.8 45.5,70.89999999999999 45.300000000000004,70.89999999999999 L 39.800000000000004,70.89999999999999 C 39.6,70.89999999999999 39.6,70.8 39.6,70.6 C 39.800000000000004,70.19999999999999 39.9,69.8 40.1,69.5 C 40.2,69.3 40.300000000000004,69.2 40.5,69.2 L 45.9,69.2 C 46,69.2 46.1,69.3 46.1,69.5 C 46,69.8 45.9,70.2 45.7,70.6 Z M 54,70.6 C 54,70.8 53.8,70.89999999999999 53.7,70.89999999999999 L 48.2,70.89999999999999 C 48,70.89999999999999 48,70.8 48,70.6 C 48.1,70.19999999999999 48.2,69.8 48.4,69.5 C 48.4,69.3 48.6,69.2 48.8,69.2 L 54.199999999999996,69.2 C 54.3,69.2 54.4,69.3 54.4,69.5 C 54.199999999999996,69.8 54.1,70.2 54,70.6 Z M 62.3,70.6 C 62.3,70.8 62.099999999999994,70.89999999999999 62,70.89999999999999 L 56.5,70.89999999999999 C 56.3,70.89999999999999 56.2,70.8 56.3,70.6 C 56.4,70.19999999999999 56.5,69.8 56.5,69.5 C 56.5,69.3 56.7,69.2 56.8,69.2 L 62.199999999999996,69.2 C 62.3,69.2 62.49999999999999,69.3 62.4,69.5 C 62.4,69.8 62.3,70.2 62.3,70.6 Z M 70,70.6 C 70,70.8 69.9,70.89999999999999 69.7,70.89999999999999 L 64.2,70.89999999999999 C 64,70.89999999999999 63.900000000000006,70.8 64,70.6 C 64,70.19999999999999 64.1,69.8 64.1,69.5 C 64.1,69.3 64.19999999999999,69.2 64.39999999999999,69.2 L 69.8,69.2 C 69.89999999999999,69.2 70.1,69.3 70.1,69.5 C 70,69.8 70,70.2 70,70.6 Z M 78.3,70.6 C 78.3,70.8 78.2,70.89999999999999 78,70.89999999999999 L 72.5,70.89999999999999 C 72.3,70.89999999999999 72.2,70.8 72.2,70.6 L 72.2,69.5 C 72.2,69.3 72.3,69.2 72.5,69.2 L 77.9,69.2 C 78,69.2 78.2,69.3 78.2,69.5 C 78.2,69.8 78.2,70.2 78.3,70.6 Z M 86.6,70.6 C 86.6,70.8 86.5,70.89999999999999 86.39999999999999,70.89999999999999 L 80.89999999999999,70.89999999999999 C 80.69999999999999,70.89999999999999 80.6,70.8 80.6,70.6 C 80.6,70.19999999999999 80.5,69.8 80.5,69.5 C 80.5,69.3 80.6,69.2 80.7,69.2 L 86.10000000000001,69.2 C 86.2,69.2 86.4,69.3 86.4,69.5 C 86.4,69.8 86.5,70.2 86.60000000000001,70.6 Z M 94.3,70.6 C 94.3,70.8 94.3,70.89999999999999 94.1,70.89999999999999 L 88.6,70.89999999999999 C 88.39999999999999,70.89999999999999 88.3,70.8 88.3,70.6 C 88.2,70.19999999999999 88.1,69.8 88,69.5 C 88,69.3 88.1,69.2 88.2,69.2 L 93.60000000000001,69.2 C 93.7,69.2 93.9,69.3 94.00000000000001,69.5 C 94.00000000000001,69.8 94.20000000000002,70.2 94.30000000000001,70.6 Z M 102.6,70.6 C 102.69999999999999,70.8 102.6,70.89999999999999 102.39999999999999,70.89999999999999 L 96.89999999999999,70.89999999999999 C 96.69999999999999,70.89999999999999 96.6,70.8 96.49999999999999,70.6 C 96.39999999999999,70.19999999999999 96.19999999999999,69.8 96.09999999999998,69.5 C 95.99999999999999,69.3 96.09999999999998,69.2 96.29999999999998,69.2 L 101.69999999999999,69.2 C 101.79999999999998,69.2 101.99999999999999,69.3 102.1,69.5 C 102.19999999999999,69.8 102.39999999999999,70.2 102.6,70.6 Z M 110.8,70.6 C 110.89999999999999,70.8 110.8,70.89999999999999 110.7,70.89999999999999 L 105.2,70.89999999999999 C 105,70.89999999999999 104.9,70.8 104.8,70.6 C 104.6,70.19999999999999 104.5,69.8 104.3,69.5 C 104.2,69.3 104.3,69.2 104.39999999999999,69.2 L 109.8,69.2 C 109.89999999999999,69.2 110.1,69.3 110.2,69.5 C 110.4,69.8 110.60000000000001,70.2 110.8,70.6 Z M 118.6,70.6 C 118.69999999999999,70.8 118.69999999999999,70.89999999999999 118.5,70.89999999999999 L 113,70.89999999999999 C 112.8,70.89999999999999 112.7,70.8 112.6,70.6 C 112.39999999999999,70.19999999999999 112.19999999999999,69.8 112,69.5 C 111.9,69.3 112,69.2 112.1,69.2 L 117.5,69.2 C 117.6,69.2 117.9,69.3 118,69.5 C 118.1,69.8 118.3,70.2 118.6,70.6 Z M 126.8,70.6 C 126.89999999999999,70.8 126.89999999999999,70.89999999999999 126.7,70.89999999999999 L 121.2,70.89999999999999 C 121,70.89999999999999 120.8,70.8 120.7,70.6 C 120.4,70.19999999999999 120.2,69.8 119.9,69.5 C 119.80000000000001,69.3 119.80000000000001,69.2 120,69.2 L 125.4,69.2 C 125.5,69.2 125.80000000000001,69.3 125.9,69.5 C 126.30000000000001,69.8 126.60000000000001,70.2 126.80000000000001,70.6 Z M 36.7,73.39999999999999 C 36.6,73.6 36.400000000000006,73.69999999999999 36.300000000000004,73.69999999999999 L 13.300000000000004,73.69999999999999 C 13.100000000000005,73.69999999999999 13.100000000000005,73.6 13.200000000000005,73.39999999999999 C 13.500000000000005,72.99999999999999 13.800000000000004,72.6 14.100000000000005,72.3 C 14.200000000000005,72.1 14.400000000000006,72 14.600000000000005,72 L 37.10000000000001,72 C 37.30000000000001,72 37.30000000000001,72.1 37.30000000000001,72.3 C 37.10000000000001,72.6 36.90000000000001,73 36.70000000000001,73.39999999999999 Z M 44.7,73.39999999999999 C 44.6,73.6 44.5,73.69999999999999 44.300000000000004,73.69999999999999 L 38.6,73.69999999999999 C 38.4,73.69999999999999 38.4,73.6 38.4,73.39999999999999 C 38.6,72.99999999999999 38.699999999999996,72.6 38.9,72.3 C 39,72.1 39.1,72 39.3,72 L 44.9,72 C 45.1,72 45.1,72.1 45.1,72.3 C 45,72.6 44.9,73 44.7,73.39999999999999 Z M 95.7,73.39999999999999 C 95.7,73.6 95.7,73.69999999999999 95.5,73.69999999999999 L 47.2,73.69999999999999 C 47,73.69999999999999 47,73.6 47,73.39999999999999 C 47.1,72.99999999999999 47.2,72.6 47.4,72.3 C 47.4,72.1 47.6,72 47.8,72 L 95,72 C 95.2,72 95.3,72.1 95.4,72.3 C 95.5,72.6 95.60000000000001,73 95.7,73.39999999999999 Z M 94.4,78.8 C 94.7,79.7 94,80.5 93,80.5 L 48.6,80.5 C 47.6,80.5 47,79.7 47.2,78.8 C 47.400000000000006,78 47.6,77.3 47.900000000000006,76.5 C 48.2,75.6 49.2,74.8 50.10000000000001,74.8 L 91.5,74.8 C 92.5,74.8 93.4,75.6 93.7,76.5 C 93.9,77.3 94.2,78.1 94.4,78.8 Z M 103.7,73.39999999999999 C 103.8,73.6 103.7,73.69999999999999 103.5,73.69999999999999 L 97.8,73.69999999999999 C 97.6,73.69999999999999 97.5,73.6 97.39999999999999,73.39999999999999 C 97.3,72.99999999999999 97.1,72.6 96.99999999999999,72.3 C 96.89999999999999,72.1 96.99999999999999,72 97.19999999999999,72 L 102.79999999999998,72 C 102.99999999999999,72 103.09999999999998,72.1 103.19999999999999,72.3 C 103.39999999999999,72.6 103.6,73 103.69999999999999,73.39999999999999 Z M 116.3,73.39999999999999 C 116.39999999999999,73.6 116.3,73.69999999999999 116.2,73.69999999999999 L 106.4,73.69999999999999 C 106.2,73.69999999999999 106.10000000000001,73.6 106,73.39999999999999 C 105.8,72.99999999999999 105.7,72.6 105.5,72.3 C 105.4,72.1 105.5,72 105.7,72 L 115.3,72 C 115.5,72 115.7,72.1 115.7,72.3 C 115.9,72.6 116.10000000000001,73 116.3,73.39999999999999 Z M 129.5,73.39999999999999 C 129.6,73.6 129.6,73.69999999999999 129.4,73.69999999999999 L 119.60000000000001,73.69999999999999 C 119.4,73.69999999999999 119.2,73.6 119.10000000000001,73.39999999999999 C 118.9,72.99999999999999 118.60000000000001,72.6 118.4,72.3 C 118.30000000000001,72.1 118.4,72 118.5,72 L 128.1,72 C 128.29999999999998,72 128.5,72.1 128.6,72.3 C 129,72.6 129.2,73 129.5,73.39999999999999 Z" fill="rgb(50, 71, 90)" stroke="rgba(255,255,255,0.01)"/></g><g transform="translate(800, 595) rotate(0, 0, 0)" width="0" height="36"><text text-decoration="none" x="0" fill="#4b4b4b" font-size="10pt" font-family="noto_regular"  y="15"></text></g></g><g id="zQZdWWmo9h8"><g transform="translate(770 100)"><rect x="0" y="0" width="50" height="95" fill="rgba(255,255,255,0.01)" stroke="rgba(255,255,255,0.01)"/><path d="M 50,86.4 C 50,91.2 46,95 41.1,95 L 8.9,95 C 4,95 0,91.1 0,86.4 L 0,8.6 C 0,3.9 4,0 8.9,0 L 41.1,0 C 46,0 50,3.9 50,8.6 L 50,86.39999999999999 Z" fill="rgb(49, 51, 61)" stroke="rgba(255,255,255,0.01)"/><path d="M 3.2,13.4 L 46.800000000000004,13.4 L 46.800000000000004,83.60000000000001 L 3.2,83.60000000000001 Z" fill="rgb(248, 253, 255)" stroke="rgba(255,255,255,0.01)"/><path d="M 17.7,7.6 C 17.699999976290147,8.446780394811451 18.616666628138155,8.976018166726192 19.349999973326415,8.5526279898538 C 19.690341182321767,8.356131913930083 19.90000001100378,7.99299217090654 19.9,7.6 C 19.90000002370985,6.75321960518855 18.98333337186184,6.223981833273808 18.25000002667358,6.6473720101462 C 17.909658817678228,6.843868086069916 17.69999998899622,7.20700782909346 17.7,7.6" fill="rgb(131, 157, 183)" stroke="rgba(255,255,255,0.01)"/><path d="M 18.5,7.6 C 18.499999996535898,7.8309401076758505 18.749999994370835,7.975277678613554 18.949999996102886,7.859807627775629 C 19.042820322718892,7.806217789074013 19.100000001607697,7.707179680187839 19.1,7.6 C 19.100000003464103,7.369059892324149 18.850000005629166,7.224722321386445 18.650000003897116,7.3401923722243705 C 18.55717967728111,7.393782210925985 18.499999998392305,7.49282031981216 18.5,7.6" fill="rgb(22, 76, 109)" stroke="rgba(255,255,255,0.01)"/><path d="M 32.3,7.9 C 32.3,8.1 32.199999999999996,8.200000000000001 31.999999999999996,8.200000000000001 L 22,8.200000000000001 C 21.8,8.200000000000001 21.7,8.100000000000001 21.7,7.900000000000001 L 21.7,7.600000000000001 C 21.7,7.400000000000001 21.8,7.300000000000002 22,7.300000000000002 L 32.1,7.300000000000002 C 32.300000000000004,7.300000000000002 32.4,7.400000000000001 32.4,7.600000000000001 L 32.4,7.900000000000001 Z" fill="rgb(131, 157, 183)" stroke="rgba(255,255,255,0.01)"/><path d="M 21,89.2 C 21,92.279201435678 24.333333333333332,94.20370233297676 27,92.66410161513775 C 28.23760430703401,91.94957043532142 29,90.62906235963266 29,89.2 C 29,86.120798564322 25.666666666666668,84.19629766702325 23,85.73589838486225 C 21.76239569296599,86.45042956467859 21,87.77093764036735 21,89.2" fill="rgb(76, 82, 96)" stroke="rgba(255,255,255,0.01)"/></g><g transform="translate(795, 205) rotate(0, 0, 0)" width="0" height="36"><text text-decoration="none" x="0" fill="#4b4b4b" font-size="10pt" font-family="noto_regular"  y="15"></text></g></g><g id="co0Mzy3Ocyz"><g transform="translate(560 150)"><rect x="0" y="0" width="130" height="110" fill="rgba(255,255,255,0.01)" stroke="rgba(255,255,255,0.01)"/><path d="M 127.9,110 L 84.3,110 C 83.1,110 82.2,109 82.2,107.9 L 82.2,2.1 C 82.2,0.9000000000000001 83.2,0 84.3,0 L 127.9,0 C 129.1,0 130,1 130,2.1 L 130,107.8 C 130,109 129,110 127.9,110 Z" fill="rgb(27, 46, 61)" stroke="rgba(255,255,255,0.01)"/><path d="M 125.4,105.1 L 86.3,105.1 C 85.1,105.1 84.2,104.1 84.2,103 L 84.2,4.2 C 84.2,3 85.2,2.1 86.3,2.1 L 125.4,2.1 C 126.60000000000001,2.1 127.5,3.1 127.5,4.2 L 127.5,103 C 127.5,104.2 126.5,105.1 125.4,105.1 Z" fill="rgb(216, 221, 225)" stroke="rgba(255,255,255,0.01)"/><path d="M 122.9,10.3 L 89.2,10.3 C 88.60000000000001,10.3 88.2,9.8 88.2,9.3 L 88.2,8.1 C 88.2,7.5 88.7,7.1 89.2,7.1 L 122.9,7.1 C 123.5,7.1 123.9,7.6 123.9,8.1 L 123.9,9.299999999999999 C 123.9,9.799999999999999 123.5,10.299999999999999 122.9,10.299999999999999 Z M 123.10000000000001,24.700000000000003 L 89.4,24.700000000000003 C 88.80000000000001,24.700000000000003 88.4,24.200000000000003 88.4,23.700000000000003 L 88.4,19.700000000000003 C 88.4,19.1 88.9,18.700000000000003 89.4,18.700000000000003 L 123.10000000000001,18.700000000000003 C 123.7,18.700000000000003 124.10000000000001,19.200000000000003 124.10000000000001,19.700000000000003 L 124.10000000000001,23.700000000000003 C 124.10000000000001,24.200000000000003 123.7,24.700000000000003 123.10000000000001,24.700000000000003 Z" fill="rgb(54, 72, 92)" stroke="rgba(255,255,255,0.01)"/><path d="M 123.6,106.1 L 88.9,106.1 C 88.60000000000001,106.1 88.4,105.89999999999999 88.4,105.6 L 88.4,105 C 88.4,104.7 88.60000000000001,104.5 88.9,104.5 L 123.60000000000001,104.5 C 123.9,104.5 124.10000000000001,104.7 124.10000000000001,105 L 124.10000000000001,105.5 C 124.10000000000001,105.9 123.9,106.1 123.60000000000001,106.1 Z" fill="rgb(42, 110, 209)" stroke="rgba(255,255,255,0.01)"/><path d="M 82.1,78 L 130,78 L 130,79 L 82.1,79 Z M 82.1,14 L 130,14 L 130,15 L 82.1,15 Z" fill="rgb(73, 90, 94)" stroke="rgba(255,255,255,0.01)"/><path d="M 103.7,57.8 C 103.7,59.87846096908265 105.86666666666667,61.17749907475931 107.60000000000001,60.13826859021798 C 108.40444279957212,59.655960043841965 108.9,58.76461709275204 108.9,57.8 C 108.9,55.72153903091734 106.73333333333335,54.42250092524068 105.00000000000001,55.46173140978201 C 104.1955572004279,55.94403995615803 103.7,56.835382907247954 103.7,57.8" fill="rgb(42, 110, 209)" stroke="rgba(255,255,255,0.01)"/><path d="M 52.3,100.5 L 45.5,100.5 C 44.4,100.5 43.5,99.6 43.5,98.5 L 43.5,86.7 C 43.5,85.60000000000001 44.4,84.7 45.5,84.7 L 52.3,84.7 C 53.4,84.7 54.3,85.60000000000001 54.3,86.7 L 54.3,98.5 C 54.3,99.6 53.4,100.5 52.3,100.5 Z" fill="rgb(27, 46, 61)" stroke="rgba(255,255,255,0.01)"/><path d="M 96.9,91 L 0.8,91 C 0.20000000000000007,91 -0.19999999999999996,90.5 -0.19999999999999996,90 L -0.19999999999999996,30 C -0.19999999999999996,29.4 0.30000000000000004,29 0.8,29 L 96.89999999999999,29 C 97.49999999999999,29 97.89999999999999,29.5 97.89999999999999,30 L 97.89999999999999,90 C 97.89999999999999,90.6 97.49999999999999,91 96.89999999999999,91 Z" fill="rgb(50, 69, 86)" stroke="rgba(255,255,255,0.01)"/><path d="M 95.1,89 L 2.7,89 C 2.1,89 1.7000000000000002,88.5 1.7000000000000002,88 L 1.7000000000000002,32.1 C 1.7000000000000002,31.5 2.2,31.1 2.7,31.1 L 95.10000000000001,31.1 C 95.7,31.1 96.10000000000001,31.6 96.10000000000001,32.1 L 96.10000000000001,88 C 96.10000000000001,88.5 95.60000000000001,89 95.10000000000001,89 Z" fill="rgb(220, 241, 249)" stroke="rgba(255,255,255,0.01)"/><path d="M 71,102.3 L 26.8,102.3 C 26.1,102.3 25.5,101.7 25.5,101 L 25.5,100.5 C 25.5,99.8 26.1,99.2 26.8,99.2 L 71,99.2 C 71.7,99.2 72.3,99.8 72.3,100.5 L 72.3,101 C 72.3,101.7 71.7,102.3 71,102.3 Z" fill="rgb(34, 38, 40)" stroke="rgba(255,255,255,0.01)"/><path d="M 71.6,101.5 L 26.1,101.5 C 25.700000000000003,101.5 25.400000000000002,101.2 25.400000000000002,100.8 L 25.400000000000002,99.39999999999999 C 25.400000000000002,98.99999999999999 25.700000000000003,98.69999999999999 26.1,98.69999999999999 L 71.6,98.69999999999999 C 72,98.69999999999999 72.3,98.99999999999999 72.3,99.39999999999999 L 72.3,100.8 C 72.3,101.2 72,101.5 71.6,101.5 Z" fill="rgb(50, 69, 86)" stroke="rgba(255,255,255,0.01)"/></g><g transform="translate(625, 270) rotate(0, 0, 0)" width="0" height="36"><text text-decoration="none" x="0" fill="#4b4b4b" font-size="10pt" font-family="noto_regular"  y="15"></text></g></g><g id="ybGA9sBqDCd"><g transform="translate(530 490)"><rect x="0" y="0" width="75" height="100" fill="rgba(255,255,255,0.01)" stroke="rgba(255,255,255,0.01)"/><path d="M 70,100 L 5,100 C 2.2,100 0,97.7 0,95 L 0,5 C 0,2.2 2.3,0 5,0 L 70,0 C 72.8,0 75,2.3 75,5 L 75,95 C 75,97.7 72.7,100 70,100 Z" fill="rgb(49, 51, 61)" stroke="rgba(255,255,255,0.01)"/><path d="M 3.7,10.8 L 71.3,10.8 L 71.3,88.7 L 3.7,88.7 Z" fill="rgb(248, 253, 255)" stroke="rgba(255,255,255,0.01)"/><path d="M 34.1,94.1 C 34.09999993456697,96.7173212203263 36.93333322700466,98.35314705474649 39.19999992638784,97.04448650125 C 40.25196365514872,96.43713499433764 40.90000003036758,95.31470306642291 40.9,94.1 C 40.90000006543303,91.48267877967369 38.06666677299534,89.8468529452535 35.80000007361216,91.15551349874998 C 34.74803634485128,91.76286500566235 34.09999996963243,92.8852969335771 34.1,94.1" fill="rgb(76, 82, 96)" stroke="rgba(255,255,255,0.01)"/><path d="M 36.5,5.5 C 36.5,6.269800358919501 37.333333333333336,6.750925583244189 38,6.366025403784438 C 38.309401076758505,6.187392608830357 38.5,5.857265589908164 38.5,5.5 C 38.5,4.730199641080499 37.666666666666664,4.249074416755811 37,4.633974596215562 C 36.690598923241495,4.812607391169643 36.5,5.142734410091836 36.5,5.5" fill="rgb(76, 82, 96)" stroke="rgba(255,255,255,0.01)"/></g><g transform="translate(567.5, 600) rotate(0, 0, 0)" width="0" height="36"><text text-decoration="none" x="0" fill="#4b4b4b" font-size="10pt" font-family="noto_regular"  y="15"></text></g></g><g id="VCYltUVzHLO"><g transform="translate(930 170)"><rect x="0" y="0" width="140" height="85" fill="rgba(255,255,255,0.01)" stroke="rgba(255,255,255,0.01)"/><path d="M 104.2,82.4 L 103.3,83 L 36.1,83 L 36.2,83.4" fill="rgb(192, 195, 204)" stroke="rgba(255,255,255,0.01)"/><path d="M 72.2,83 L 71.10000000000001,83 L 0.10000000000000853,82.4 L 0.8000000000000085,83.30000000000001 L 2.200000000000008,84.80000000000001 C 2.3000000000000083,85.00000000000001 2.700000000000008,85.00000000000001 3.000000000000008,85.00000000000001 L 137,85.00000000000001 C 137.3,85.00000000000001 137.7,84.80000000000001 137.9,84.60000000000001 L 139.3,83.4 L 140,82.7 L 72.2,83 Z" fill="rgb(155, 165, 168)" stroke="rgba(255,255,255,0.01)"/><path d="M 76.5,83 C 76.5,83 76,84 75.4,84 L 64.9,84 C 64.30000000000001,84 63.800000000000004,83 63.800000000000004,83 L 76.5,83 Z" fill="rgb(119, 129, 132)" stroke="rgba(255,255,255,0.01)"/><path d="M 121.4,64 L 19.6,64 C 17.900000000000002,64 17,63.1 17,61.5 L 17,1.7 C 17,0.7 17.7,0 18.7,0 L 122.4,0 C 123.30000000000001,0 124,0.7 124,1.5 L 124,61.4 C 124,63.1 123.1,64 121.4,64 Z" fill="rgb(50, 71, 90)" stroke="rgba(255,255,255,0.01)"/><path d="M 139,83 L 1,83 C -0.10000000000000009,83 -0.3999999999999999,81.9 0.5,80.9 C 4.9,75.7 10.2,70.7 14.6,65.5 C 15.4,64.5 16.8,64 17.7,64 L 122.4,64 C 123.30000000000001,64 124.60000000000001,64.4 125.5,65.4 C 129.9,70.60000000000001 135.2,75.9 139.6,81.10000000000001 C 140.29999999999998,82.10000000000001 140.1,83.00000000000001 139,83.00000000000001 Z" fill="rgb(187, 196, 203)" stroke="rgba(255,255,255,0.01)"/><path d="M 119.8,61 L 19.799999999999997,61 L 19.799999999999997,6 L 119.8,6 L 119.8,61 Z" fill="rgb(220, 241, 249)" stroke="rgba(255,255,255,0.01)"/><path d="M 69,2.8 C 69,3.5698003589195006 69.83333333333333,4.050925583244189 70.5,3.6660254037844386 C 70.8094010767585,3.4873926088303566 71,3.1572655899081634 71,2.8 C 71,2.030199641080499 70.16666666666667,1.5490744167558108 69.5,1.933974596215561 C 69.1905989232415,2.112607391169643 69,2.4427344100918362 69,2.8" fill="rgb(71, 100, 114)" stroke="rgba(255,255,255,0.01)"/><path d="M 24.5,66.1 C 24.4,66.19999999999999 24.2,66.3 24.1,66.3 L 18.8,66.3 C 18.7,66.3 18.7,66.2 18.8,66.1 C 19,65.89999999999999 19.1,65.69999999999999 19.3,65.39999999999999 C 19.400000000000002,65.3 19.6,65.19999999999999 19.7,65.19999999999999 L 24.9,65.19999999999999 C 25,65.19999999999999 25,65.29999999999998 25,65.39999999999999 C 24.8,65.6 24.6,65.8 24.5,66.1 Z M 32.2,66.1 C 32.1,66.19999999999999 32,66.3 31.800000000000004,66.3 L 26.500000000000004,66.3 C 26.400000000000002,66.3 26.300000000000004,66.2 26.400000000000002,66.1 C 26.500000000000004,65.89999999999999 26.700000000000003,65.69999999999999 26.8,65.39999999999999 C 26.900000000000002,65.3 27.1,65.19999999999999 27.2,65.19999999999999 L 32.4,65.19999999999999 C 32.5,65.19999999999999 32.6,65.29999999999998 32.5,65.39999999999999 C 32.5,65.6 32.4,65.8 32.2,66.1 Z M 39.5,66.1 C 39.4,66.19999999999999 39.3,66.3 39.2,66.3 L 33.900000000000006,66.3 C 33.800000000000004,66.3 33.7,66.2 33.800000000000004,66.1 C 33.900000000000006,65.89999999999999 34.00000000000001,65.69999999999999 34.2,65.39999999999999 C 34.300000000000004,65.3 34.400000000000006,65.19999999999999 34.5,65.19999999999999 L 39.7,65.19999999999999 C 39.800000000000004,65.19999999999999 39.900000000000006,65.29999999999998 39.800000000000004,65.39999999999999 C 39.7,65.6 39.6,65.8 39.50000000000001,66.1 Z M 47.3,66.1 C 47.3,66.19999999999999 47.099999999999994,66.3 47,66.3 L 41.7,66.3 C 41.6,66.3 41.5,66.2 41.6,66.1 C 41.7,65.89999999999999 41.800000000000004,65.69999999999999 41.9,65.39999999999999 C 42,65.3 42.1,65.19999999999999 42.199999999999996,65.19999999999999 L 47.4,65.19999999999999 C 47.5,65.19999999999999 47.6,65.29999999999998 47.5,65.39999999999999 C 47.4,65.6 47.4,65.8 47.3,66.1 Z M 55.099999999999994,66.1 C 55.099999999999994,66.19999999999999 54.89999999999999,66.3 54.8,66.3 L 49.5,66.3 C 49.4,66.3 49.3,66.2 49.4,66.1 C 49.5,65.89999999999999 49.5,65.69999999999999 49.6,65.39999999999999 C 49.6,65.3 49.800000000000004,65.19999999999999 49.9,65.19999999999999 L 55.1,65.19999999999999 C 55.2,65.19999999999999 55.300000000000004,65.29999999999998 55.300000000000004,65.39999999999999 C 55.2,65.6 55.1,65.8 55.1,66.1 Z M 62.8,66.1 C 62.8,66.19999999999999 62.699999999999996,66.3 62.5,66.3 L 57.2,66.3 C 57.1,66.3 57,66.2 57,66.1 C 57,65.89999999999999 57.1,65.69999999999999 57.1,65.39999999999999 C 57.1,65.3 57.2,65.19999999999999 57.4,65.19999999999999 L 62.6,65.19999999999999 C 62.7,65.19999999999999 62.800000000000004,65.29999999999998 62.800000000000004,65.39999999999999 C 62.900000000000006,65.6 62.900000000000006,65.8 62.800000000000004,66.1 Z M 70.1,66.1 C 70.1,66.19999999999999 70,66.3 69.89999999999999,66.3 L 64.6,66.3 C 64.5,66.3 64.39999999999999,66.2 64.39999999999999,66.1 C 64.39999999999999,65.89999999999999 64.39999999999999,65.69999999999999 64.49999999999999,65.39999999999999 C 64.49999999999999,65.3 64.59999999999998,65.19999999999999 64.69999999999999,65.19999999999999 L 69.89999999999999,65.19999999999999 C 69.99999999999999,65.19999999999999 70.1,65.29999999999998 70.1,65.39999999999999 L 70.1,66.1 Z M 77.89999999999999,66.1 C 77.89999999999999,66.19999999999999 77.8,66.3 77.69999999999999,66.3 L 72.39999999999999,66.3 C 72.3,66.3 72.19999999999999,66.2 72.19999999999999,66.1 L 72.19999999999999,65.39999999999999 C 72.19999999999999,65.3 72.29999999999998,65.19999999999999 72.39999999999999,65.19999999999999 L 77.6,65.19999999999999 C 77.69999999999999,65.19999999999999 77.8,65.29999999999998 77.8,65.39999999999999 C 77.8,65.6 77.8,65.8 77.89999999999999,66.1 Z M 85.6,66.1 C 85.6,66.19999999999999 85.6,66.3 85.39999999999999,66.3 L 80.1,66.3 C 80,66.3 79.89999999999999,66.2 79.8,66.1 C 79.8,65.89999999999999 79.7,65.69999999999999 79.7,65.39999999999999 C 79.7,65.3 79.8,65.19999999999999 79.9,65.19999999999999 L 85.10000000000001,65.19999999999999 C 85.2,65.19999999999999 85.30000000000001,65.29999999999998 85.4,65.39999999999999 C 85.5,65.6 85.60000000000001,65.8 85.60000000000001,66.1 Z M 92.89999999999999,66.1 C 92.89999999999999,66.19999999999999 92.89999999999999,66.3 92.8,66.3 L 87.5,66.3 C 87.4,66.3 87.3,66.2 87.2,66.1 C 87.2,65.89999999999999 87.10000000000001,65.69999999999999 87.10000000000001,65.39999999999999 C 87.10000000000001,65.3 87.10000000000001,65.19999999999999 87.30000000000001,65.19999999999999 L 92.50000000000001,65.19999999999999 C 92.60000000000001,65.19999999999999 92.80000000000001,65.29999999999998 92.80000000000001,65.39999999999999 C 92.80000000000001,65.6 92.80000000000001,65.8 92.9,66.1 Z M 100.69999999999999,66.1 C 100.79999999999998,66.19999999999999 100.69999999999999,66.3 100.6,66.3 L 95.3,66.3 C 95.2,66.3 95,66.2 95,66.1 C 94.9,65.89999999999999 94.9,65.69999999999999 94.8,65.39999999999999 C 94.8,65.3 94.8,65.19999999999999 94.89999999999999,65.19999999999999 L 100.1,65.19999999999999 C 100.19999999999999,65.19999999999999 100.39999999999999,65.29999999999998 100.39999999999999,65.39999999999999 C 100.49999999999999,65.6 100.6,65.8 100.69999999999999,66.1 Z M 108.39999999999999,66.1 C 108.49999999999999,66.19999999999999 108.39999999999999,66.3 108.3,66.3 L 103,66.3 C 102.9,66.3 102.7,66.2 102.7,66.1 C 102.60000000000001,65.89999999999999 102.5,65.69999999999999 102.4,65.39999999999999 C 102.30000000000001,65.3 102.4,65.19999999999999 102.5,65.19999999999999 L 107.7,65.19999999999999 C 107.8,65.19999999999999 108,65.29999999999998 108,65.39999999999999 C 108.2,65.6 108.3,65.8 108.4,66.1 Z M 115.69999999999999,66.1 C 115.79999999999998,66.19999999999999 115.79999999999998,66.3 115.6,66.3 L 110.3,66.3 C 110.2,66.3 110,66.2 109.89999999999999,66.1 C 109.8,65.89999999999999 109.69999999999999,65.69999999999999 109.49999999999999,65.39999999999999 C 109.39999999999999,65.3 109.49999999999999,65.19999999999999 109.59999999999998,65.19999999999999 L 114.79999999999998,65.19999999999999 C 114.89999999999998,65.19999999999999 115.09999999999998,65.29999999999998 115.19999999999999,65.39999999999999 C 115.39999999999999,65.6 115.6,65.8 115.69999999999999,66.1 Z M 123.49999999999999,66.1 C 123.59999999999998,66.19999999999999 123.59999999999998,66.3 123.49999999999999,66.3 L 118.19999999999999,66.3 C 118.1,66.3 117.89999999999999,66.2 117.79999999999998,66.1 C 117.69999999999999,65.89999999999999 117.49999999999999,65.69999999999999 117.39999999999998,65.39999999999999 C 117.29999999999998,65.3 117.29999999999998,65.19999999999999 117.49999999999997,65.19999999999999 L 122.69999999999997,65.19999999999999 C 122.79999999999997,65.19999999999999 122.99999999999997,65.29999999999998 123.09999999999998,65.39999999999999 C 123.19999999999997,65.6 123.29999999999998,65.8 123.49999999999999,66.1 Z M 23,68.3 C 22.9,68.5 22.7,68.6 22.5,68.6 L 17.1,68.6 C 17,68.6 16.900000000000002,68.5 17,68.3 C 17.3,67.89999999999999 17.6,67.5 17.9,67.2 C 18,67 18.2,66.9 18.4,66.9 L 23.599999999999998,66.9 C 23.7,66.9 23.799999999999997,67 23.7,67.2 C 23.5,67.5 23.2,67.9 23,68.3 Z M 31,68.3 C 30.9,68.5 30.7,68.6 30.6,68.6 L 25.200000000000003,68.6 C 25.1,68.6 25.000000000000004,68.5 25.1,68.3 C 25.3,67.89999999999999 25.6,67.5 25.8,67.2 C 25.900000000000002,67 26.1,66.9 26.2,66.9 L 31.4,66.9 C 31.5,66.9 31.599999999999998,67 31.5,67.2 C 31.4,67.5 31.2,67.9 31,68.3 Z M 38.5,68.3 C 38.4,68.5 38.3,68.6 38.1,68.6 L 32.7,68.6 C 32.6,68.6 32.5,68.5 32.6,68.3 C 32.800000000000004,67.89999999999999 33,67.5 33.2,67.2 C 33.300000000000004,67 33.5,66.9 33.6,66.9 L 38.800000000000004,66.9 C 38.900000000000006,66.9 39.00000000000001,67 38.900000000000006,67.2 C 38.800000000000004,67.5 38.7,67.9 38.50000000000001,68.3 Z M 46.5,68.3 C 46.4,68.5 46.3,68.6 46.1,68.6 L 40.7,68.6 C 40.6,68.6 40.5,68.5 40.6,68.3 C 40.800000000000004,67.89999999999999 40.9,67.5 41.1,67.2 C 41.2,67 41.300000000000004,66.9 41.5,66.9 L 46.7,66.9 C 46.800000000000004,66.9 46.900000000000006,67 46.900000000000006,67.2 C 46.800000000000004,67.5 46.60000000000001,67.9 46.50000000000001,68.3 Z M 54.5,68.3 C 54.5,68.5 54.3,68.6 54.2,68.6 L 48.800000000000004,68.6 C 48.7,68.6 48.6,68.5 48.6,68.3 C 48.7,67.89999999999999 48.800000000000004,67.5 49,67.2 C 49,67 49.2,66.9 49.4,66.9 L 54.6,66.9 C 54.7,66.9 54.800000000000004,67 54.800000000000004,67.2 C 54.7,67.5 54.6,67.9 54.50000000000001,68.3 Z M 62.6,68.3 C 62.6,68.5 62.4,68.6 62.300000000000004,68.6 L 56.900000000000006,68.6 C 56.800000000000004,68.6 56.7,68.5 56.7,68.3 C 56.800000000000004,67.89999999999999 56.900000000000006,67.5 56.900000000000006,67.2 C 56.900000000000006,67 57.10000000000001,66.9 57.2,66.9 L 62.400000000000006,66.9 C 62.50000000000001,66.9 62.60000000000001,67 62.60000000000001,67.2 C 62.70000000000001,67.5 62.60000000000001,67.9 62.60000000000001,68.3 Z M 70,68.3 C 70,68.5 69.9,68.6 69.7,68.6 L 64.3,68.6 C 64.2,68.6 64,68.5 64.1,68.3 C 64.1,67.89999999999999 64.19999999999999,67.5 64.19999999999999,67.2 C 64.19999999999999,67 64.29999999999998,66.9 64.49999999999999,66.9 L 69.69999999999999,66.9 C 69.79999999999998,66.9 69.99999999999999,67 69.99999999999999,67.2 C 70.09999999999998,67.5 70.09999999999998,67.9 69.99999999999999,68.3 Z M 78.1,68.3 C 78.1,68.5 78,68.6 77.89999999999999,68.6 L 72.49999999999999,68.6 C 72.39999999999999,68.6 72.19999999999999,68.5 72.19999999999999,68.3 L 72.19999999999999,67.2 C 72.19999999999999,67 72.29999999999998,66.9 72.49999999999999,66.9 L 77.69999999999999,66.9 C 77.79999999999998,66.9 77.99999999999999,67 77.99999999999999,67.2 C 77.99999999999999,67.5 77.99999999999999,67.9 78.09999999999998,68.3 Z M 86.1,68.3 C 86.1,68.5 86,68.6 85.89999999999999,68.6 L 80.49999999999999,68.6 C 80.39999999999999,68.6 80.19999999999999,68.5 80.19999999999999,68.3 C 80.19999999999999,67.89999999999999 80.1,67.5 80.1,67.2 C 80.1,67 80.19999999999999,66.9 80.3,66.9 L 85.5,66.9 C 85.6,66.9 85.8,67 85.8,67.2 C 85.89999999999999,67.5 86,67.9 86.1,68.3 Z M 93.6,68.3 C 93.6,68.5 93.6,68.6 93.39999999999999,68.6 L 88,68.6 C 87.9,68.6 87.7,68.5 87.7,68.3 C 87.60000000000001,67.89999999999999 87.5,67.5 87.4,67.2 C 87.4,67 87.5,66.9 87.60000000000001,66.9 L 92.80000000000001,66.9 C 92.9,66.9 93.10000000000001,67 93.10000000000001,67.2 C 93.30000000000001,67.5 93.50000000000001,67.9 93.60000000000001,68.3 Z M 101.6,68.3 C 101.69999999999999,68.5 101.6,68.6 101.5,68.6 L 96.1,68.6 C 96,68.6 95.8,68.5 95.69999999999999,68.3 C 95.6,67.89999999999999 95.39999999999999,67.5 95.29999999999998,67.2 C 95.19999999999999,67 95.29999999999998,66.9 95.49999999999999,66.9 L 100.69999999999999,66.9 C 100.79999999999998,66.9 100.99999999999999,67 101.1,67.2 C 101.3,67.5 101.39999999999999,67.9 101.6,68.3 Z M 109.6,68.3 C 109.69999999999999,68.5 109.6,68.6 109.5,68.6 L 104.1,68.6 C 104,68.6 103.8,68.5 103.69999999999999,68.3 C 103.49999999999999,67.89999999999999 103.39999999999999,67.5 103.19999999999999,67.2 C 103.1,67 103.19999999999999,66.9 103.29999999999998,66.9 L 108.49999999999999,66.9 C 108.59999999999998,66.9 108.79999999999998,67 108.89999999999999,67.2 C 109.19999999999999,67.5 109.39999999999999,67.9 109.6,68.3 Z M 117.1,68.3 C 117.19999999999999,68.5 117.19999999999999,68.6 117,68.6 L 111.6,68.6 C 111.5,68.6 111.3,68.5 111.19999999999999,68.3 C 110.99999999999999,67.89999999999999 110.79999999999998,67.5 110.6,67.2 C 110.5,67 110.6,66.9 110.69999999999999,66.9 L 115.89999999999999,66.9 C 115.99999999999999,66.9 116.19999999999999,67 116.3,67.2 C 116.6,67.5 116.89999999999999,67.9 117.1,68.3 Z M 125.1,68.3 C 125.19999999999999,68.5 125.19999999999999,68.6 125,68.6 L 119.6,68.6 C 119.5,68.6 119.19999999999999,68.5 119.1,68.3 C 118.8,67.89999999999999 118.6,67.5 118.3,67.2 C 118.2,67 118.2,66.9 118.39999999999999,66.9 L 123.6,66.9 C 123.69999999999999,66.9 124,67 124.1,67.2 C 124.6,67.5 124.89999999999999,67.9 125.1,68.3 Z M 21.4,70.6 C 21.299999999999997,70.8 21.099999999999998,70.89999999999999 20.9,70.89999999999999 L 15.399999999999999,70.89999999999999 C 15.2,70.89999999999999 15.2,70.8 15.299999999999999,70.6 C 15.6,70.19999999999999 15.899999999999999,69.8 16.2,69.5 C 16.3,69.3 16.5,69.2 16.7,69.2 L 22.1,69.2 C 22.200000000000003,69.2 22.3,69.3 22.200000000000003,69.5 C 22.000000000000004,69.8 21.700000000000003,70.2 21.400000000000002,70.6 Z M 29.7,70.6 C 29.599999999999998,70.8 29.4,70.89999999999999 29.3,70.89999999999999 L 23.8,70.89999999999999 C 23.6,70.89999999999999 23.6,70.8 23.7,70.6 C 23.9,70.19999999999999 24.2,69.8 24.4,69.5 C 24.5,69.3 24.7,69.2 24.9,69.2 L 30.299999999999997,69.2 C 30.4,69.2 30.499999999999996,69.3 30.4,69.5 C 30.2,69.8 29.9,70.2 29.7,70.6 Z M 37.5,70.6 C 37.4,70.8 37.2,70.89999999999999 37.1,70.89999999999999 L 31.6,70.89999999999999 C 31.400000000000002,70.89999999999999 31.400000000000002,70.8 31.5,70.6 C 31.7,70.19999999999999 31.9,69.8 32.1,69.5 C 32.2,69.3 32.4,69.2 32.5,69.2 L 37.9,69.2 C 38,69.2 38.1,69.3 38,69.5 C 37.8,69.8 37.6,70.2 37.5,70.6 Z M 45.7,70.6 C 45.6,70.8 45.5,70.89999999999999 45.300000000000004,70.89999999999999 L 39.800000000000004,70.89999999999999 C 39.6,70.89999999999999 39.6,70.8 39.6,70.6 C 39.800000000000004,70.19999999999999 39.9,69.8 40.1,69.5 C 40.2,69.3 40.300000000000004,69.2 40.5,69.2 L 45.9,69.2 C 46,69.2 46.1,69.3 46.1,69.5 C 46,69.8 45.9,70.2 45.7,70.6 Z M 54,70.6 C 54,70.8 53.8,70.89999999999999 53.7,70.89999999999999 L 48.2,70.89999999999999 C 48,70.89999999999999 48,70.8 48,70.6 C 48.1,70.19999999999999 48.2,69.8 48.4,69.5 C 48.4,69.3 48.6,69.2 48.8,69.2 L 54.199999999999996,69.2 C 54.3,69.2 54.4,69.3 54.4,69.5 C 54.199999999999996,69.8 54.1,70.2 54,70.6 Z M 62.3,70.6 C 62.3,70.8 62.099999999999994,70.89999999999999 62,70.89999999999999 L 56.5,70.89999999999999 C 56.3,70.89999999999999 56.2,70.8 56.3,70.6 C 56.4,70.19999999999999 56.5,69.8 56.5,69.5 C 56.5,69.3 56.7,69.2 56.8,69.2 L 62.199999999999996,69.2 C 62.3,69.2 62.49999999999999,69.3 62.4,69.5 C 62.4,69.8 62.3,70.2 62.3,70.6 Z M 70,70.6 C 70,70.8 69.9,70.89999999999999 69.7,70.89999999999999 L 64.2,70.89999999999999 C 64,70.89999999999999 63.900000000000006,70.8 64,70.6 C 64,70.19999999999999 64.1,69.8 64.1,69.5 C 64.1,69.3 64.19999999999999,69.2 64.39999999999999,69.2 L 69.8,69.2 C 69.89999999999999,69.2 70.1,69.3 70.1,69.5 C 70,69.8 70,70.2 70,70.6 Z M 78.3,70.6 C 78.3,70.8 78.2,70.89999999999999 78,70.89999999999999 L 72.5,70.89999999999999 C 72.3,70.89999999999999 72.2,70.8 72.2,70.6 L 72.2,69.5 C 72.2,69.3 72.3,69.2 72.5,69.2 L 77.9,69.2 C 78,69.2 78.2,69.3 78.2,69.5 C 78.2,69.8 78.2,70.2 78.3,70.6 Z M 86.6,70.6 C 86.6,70.8 86.5,70.89999999999999 86.39999999999999,70.89999999999999 L 80.89999999999999,70.89999999999999 C 80.69999999999999,70.89999999999999 80.6,70.8 80.6,70.6 C 80.6,70.19999999999999 80.5,69.8 80.5,69.5 C 80.5,69.3 80.6,69.2 80.7,69.2 L 86.10000000000001,69.2 C 86.2,69.2 86.4,69.3 86.4,69.5 C 86.4,69.8 86.5,70.2 86.60000000000001,70.6 Z M 94.3,70.6 C 94.3,70.8 94.3,70.89999999999999 94.1,70.89999999999999 L 88.6,70.89999999999999 C 88.39999999999999,70.89999999999999 88.3,70.8 88.3,70.6 C 88.2,70.19999999999999 88.1,69.8 88,69.5 C 88,69.3 88.1,69.2 88.2,69.2 L 93.60000000000001,69.2 C 93.7,69.2 93.9,69.3 94.00000000000001,69.5 C 94.00000000000001,69.8 94.20000000000002,70.2 94.30000000000001,70.6 Z M 102.6,70.6 C 102.69999999999999,70.8 102.6,70.89999999999999 102.39999999999999,70.89999999999999 L 96.89999999999999,70.89999999999999 C 96.69999999999999,70.89999999999999 96.6,70.8 96.49999999999999,70.6 C 96.39999999999999,70.19999999999999 96.19999999999999,69.8 96.09999999999998,69.5 C 95.99999999999999,69.3 96.09999999999998,69.2 96.29999999999998,69.2 L 101.69999999999999,69.2 C 101.79999999999998,69.2 101.99999999999999,69.3 102.1,69.5 C 102.19999999999999,69.8 102.39999999999999,70.2 102.6,70.6 Z M 110.8,70.6 C 110.89999999999999,70.8 110.8,70.89999999999999 110.7,70.89999999999999 L 105.2,70.89999999999999 C 105,70.89999999999999 104.9,70.8 104.8,70.6 C 104.6,70.19999999999999 104.5,69.8 104.3,69.5 C 104.2,69.3 104.3,69.2 104.39999999999999,69.2 L 109.8,69.2 C 109.89999999999999,69.2 110.1,69.3 110.2,69.5 C 110.4,69.8 110.60000000000001,70.2 110.8,70.6 Z M 118.6,70.6 C 118.69999999999999,70.8 118.69999999999999,70.89999999999999 118.5,70.89999999999999 L 113,70.89999999999999 C 112.8,70.89999999999999 112.7,70.8 112.6,70.6 C 112.39999999999999,70.19999999999999 112.19999999999999,69.8 112,69.5 C 111.9,69.3 112,69.2 112.1,69.2 L 117.5,69.2 C 117.6,69.2 117.9,69.3 118,69.5 C 118.1,69.8 118.3,70.2 118.6,70.6 Z M 126.8,70.6 C 126.89999999999999,70.8 126.89999999999999,70.89999999999999 126.7,70.89999999999999 L 121.2,70.89999999999999 C 121,70.89999999999999 120.8,70.8 120.7,70.6 C 120.4,70.19999999999999 120.2,69.8 119.9,69.5 C 119.80000000000001,69.3 119.80000000000001,69.2 120,69.2 L 125.4,69.2 C 125.5,69.2 125.80000000000001,69.3 125.9,69.5 C 126.30000000000001,69.8 126.60000000000001,70.2 126.80000000000001,70.6 Z M 36.7,73.39999999999999 C 36.6,73.6 36.400000000000006,73.69999999999999 36.300000000000004,73.69999999999999 L 13.300000000000004,73.69999999999999 C 13.100000000000005,73.69999999999999 13.100000000000005,73.6 13.200000000000005,73.39999999999999 C 13.500000000000005,72.99999999999999 13.800000000000004,72.6 14.100000000000005,72.3 C 14.200000000000005,72.1 14.400000000000006,72 14.600000000000005,72 L 37.10000000000001,72 C 37.30000000000001,72 37.30000000000001,72.1 37.30000000000001,72.3 C 37.10000000000001,72.6 36.90000000000001,73 36.70000000000001,73.39999999999999 Z M 44.7,73.39999999999999 C 44.6,73.6 44.5,73.69999999999999 44.300000000000004,73.69999999999999 L 38.6,73.69999999999999 C 38.4,73.69999999999999 38.4,73.6 38.4,73.39999999999999 C 38.6,72.99999999999999 38.699999999999996,72.6 38.9,72.3 C 39,72.1 39.1,72 39.3,72 L 44.9,72 C 45.1,72 45.1,72.1 45.1,72.3 C 45,72.6 44.9,73 44.7,73.39999999999999 Z M 95.7,73.39999999999999 C 95.7,73.6 95.7,73.69999999999999 95.5,73.69999999999999 L 47.2,73.69999999999999 C 47,73.69999999999999 47,73.6 47,73.39999999999999 C 47.1,72.99999999999999 47.2,72.6 47.4,72.3 C 47.4,72.1 47.6,72 47.8,72 L 95,72 C 95.2,72 95.3,72.1 95.4,72.3 C 95.5,72.6 95.60000000000001,73 95.7,73.39999999999999 Z M 94.4,78.8 C 94.7,79.7 94,80.5 93,80.5 L 48.6,80.5 C 47.6,80.5 47,79.7 47.2,78.8 C 47.400000000000006,78 47.6,77.3 47.900000000000006,76.5 C 48.2,75.6 49.2,74.8 50.10000000000001,74.8 L 91.5,74.8 C 92.5,74.8 93.4,75.6 93.7,76.5 C 93.9,77.3 94.2,78.1 94.4,78.8 Z M 103.7,73.39999999999999 C 103.8,73.6 103.7,73.69999999999999 103.5,73.69999999999999 L 97.8,73.69999999999999 C 97.6,73.69999999999999 97.5,73.6 97.39999999999999,73.39999999999999 C 97.3,72.99999999999999 97.1,72.6 96.99999999999999,72.3 C 96.89999999999999,72.1 96.99999999999999,72 97.19999999999999,72 L 102.79999999999998,72 C 102.99999999999999,72 103.09999999999998,72.1 103.19999999999999,72.3 C 103.39999999999999,72.6 103.6,73 103.69999999999999,73.39999999999999 Z M 116.3,73.39999999999999 C 116.39999999999999,73.6 116.3,73.69999999999999 116.2,73.69999999999999 L 106.4,73.69999999999999 C 106.2,73.69999999999999 106.10000000000001,73.6 106,73.39999999999999 C 105.8,72.99999999999999 105.7,72.6 105.5,72.3 C 105.4,72.1 105.5,72 105.7,72 L 115.3,72 C 115.5,72 115.7,72.1 115.7,72.3 C 115.9,72.6 116.10000000000001,73 116.3,73.39999999999999 Z M 129.5,73.39999999999999 C 129.6,73.6 129.6,73.69999999999999 129.4,73.69999999999999 L 119.60000000000001,73.69999999999999 C 119.4,73.69999999999999 119.2,73.6 119.10000000000001,73.39999999999999 C 118.9,72.99999999999999 118.60000000000001,72.6 118.4,72.3 C 118.30000000000001,72.1 118.4,72 118.5,72 L 128.1,72 C 128.29999999999998,72 128.5,72.1 128.6,72.3 C 129,72.6 129.2,73 129.5,73.39999999999999 Z" fill="rgb(50, 71, 90)" stroke="rgba(255,255,255,0.01)"/></g><g transform="translate(1000, 265) rotate(0, 0, 0)" width="0" height="36"><text text-decoration="none" x="0" fill="#4b4b4b" font-size="10pt" font-family="noto_regular"  y="15"></text></g></g><g id="tCSo1TGVnfd"><g transform="translate(950 470)"><rect x="0" y="0" width="130" height="110" fill="rgba(255,255,255,0.01)" stroke="rgba(255,255,255,0.01)"/><path d="M 127.9,110 L 84.3,110 C 83.1,110 82.2,109 82.2,107.9 L 82.2,2.1 C 82.2,0.9000000000000001 83.2,0 84.3,0 L 127.9,0 C 129.1,0 130,1 130,2.1 L 130,107.8 C 130,109 129,110 127.9,110 Z" fill="rgb(27, 46, 61)" stroke="rgba(255,255,255,0.01)"/><path d="M 125.4,105.1 L 86.3,105.1 C 85.1,105.1 84.2,104.1 84.2,103 L 84.2,4.2 C 84.2,3 85.2,2.1 86.3,2.1 L 125.4,2.1 C 126.60000000000001,2.1 127.5,3.1 127.5,4.2 L 127.5,103 C 127.5,104.2 126.5,105.1 125.4,105.1 Z" fill="rgb(216, 221, 225)" stroke="rgba(255,255,255,0.01)"/><path d="M 122.9,10.3 L 89.2,10.3 C 88.60000000000001,10.3 88.2,9.8 88.2,9.3 L 88.2,8.1 C 88.2,7.5 88.7,7.1 89.2,7.1 L 122.9,7.1 C 123.5,7.1 123.9,7.6 123.9,8.1 L 123.9,9.299999999999999 C 123.9,9.799999999999999 123.5,10.299999999999999 122.9,10.299999999999999 Z M 123.10000000000001,24.700000000000003 L 89.4,24.700000000000003 C 88.80000000000001,24.700000000000003 88.4,24.200000000000003 88.4,23.700000000000003 L 88.4,19.700000000000003 C 88.4,19.1 88.9,18.700000000000003 89.4,18.700000000000003 L 123.10000000000001,18.700000000000003 C 123.7,18.700000000000003 124.10000000000001,19.200000000000003 124.10000000000001,19.700000000000003 L 124.10000000000001,23.700000000000003 C 124.10000000000001,24.200000000000003 123.7,24.700000000000003 123.10000000000001,24.700000000000003 Z" fill="rgb(54, 72, 92)" stroke="rgba(255,255,255,0.01)"/><path d="M 123.6,106.1 L 88.9,106.1 C 88.60000000000001,106.1 88.4,105.89999999999999 88.4,105.6 L 88.4,105 C 88.4,104.7 88.60000000000001,104.5 88.9,104.5 L 123.60000000000001,104.5 C 123.9,104.5 124.10000000000001,104.7 124.10000000000001,105 L 124.10000000000001,105.5 C 124.10000000000001,105.9 123.9,106.1 123.60000000000001,106.1 Z" fill="rgb(42, 110, 209)" stroke="rgba(255,255,255,0.01)"/><path d="M 82.1,78 L 130,78 L 130,79 L 82.1,79 Z M 82.1,14 L 130,14 L 130,15 L 82.1,15 Z" fill="rgb(73, 90, 94)" stroke="rgba(255,255,255,0.01)"/><path d="M 103.7,57.8 C 103.7,59.87846096908265 105.86666666666667,61.17749907475931 107.60000000000001,60.13826859021798 C 108.40444279957212,59.655960043841965 108.9,58.76461709275204 108.9,57.8 C 108.9,55.72153903091734 106.73333333333335,54.42250092524068 105.00000000000001,55.46173140978201 C 104.1955572004279,55.94403995615803 103.7,56.835382907247954 103.7,57.8" fill="rgb(42, 110, 209)" stroke="rgba(255,255,255,0.01)"/><path d="M 52.3,100.5 L 45.5,100.5 C 44.4,100.5 43.5,99.6 43.5,98.5 L 43.5,86.7 C 43.5,85.60000000000001 44.4,84.7 45.5,84.7 L 52.3,84.7 C 53.4,84.7 54.3,85.60000000000001 54.3,86.7 L 54.3,98.5 C 54.3,99.6 53.4,100.5 52.3,100.5 Z" fill="rgb(27, 46, 61)" stroke="rgba(255,255,255,0.01)"/><path d="M 96.9,91 L 0.8,91 C 0.20000000000000007,91 -0.19999999999999996,90.5 -0.19999999999999996,90 L -0.19999999999999996,30 C -0.19999999999999996,29.4 0.30000000000000004,29 0.8,29 L 96.89999999999999,29 C 97.49999999999999,29 97.89999999999999,29.5 97.89999999999999,30 L 97.89999999999999,90 C 97.89999999999999,90.6 97.49999999999999,91 96.89999999999999,91 Z" fill="rgb(50, 69, 86)" stroke="rgba(255,255,255,0.01)"/><path d="M 95.1,89 L 2.7,89 C 2.1,89 1.7000000000000002,88.5 1.7000000000000002,88 L 1.7000000000000002,32.1 C 1.7000000000000002,31.5 2.2,31.1 2.7,31.1 L 95.10000000000001,31.1 C 95.7,31.1 96.10000000000001,31.6 96.10000000000001,32.1 L 96.10000000000001,88 C 96.10000000000001,88.5 95.60000000000001,89 95.10000000000001,89 Z" fill="rgb(220, 241, 249)" stroke="rgba(255,255,255,0.01)"/><path d="M 71,102.3 L 26.8,102.3 C 26.1,102.3 25.5,101.7 25.5,101 L 25.5,100.5 C 25.5,99.8 26.1,99.2 26.8,99.2 L 71,99.2 C 71.7,99.2 72.3,99.8 72.3,100.5 L 72.3,101 C 72.3,101.7 71.7,102.3 71,102.3 Z" fill="rgb(34, 38, 40)" stroke="rgba(255,255,255,0.01)"/><path d="M 71.6,101.5 L 26.1,101.5 C 25.700000000000003,101.5 25.400000000000002,101.2 25.400000000000002,100.8 L 25.400000000000002,99.39999999999999 C 25.400000000000002,98.99999999999999 25.700000000000003,98.69999999999999 26.1,98.69999999999999 L 71.6,98.69999999999999 C 72,98.69999999999999 72.3,98.99999999999999 72.3,99.39999999999999 L 72.3,100.8 C 72.3,101.2 72,101.5 71.6,101.5 Z" fill="rgb(50, 69, 86)" stroke="rgba(255,255,255,0.01)"/></g><g transform="translate(1015, 590) rotate(0, 0, 0)" width="0" height="36"><text text-decoration="none" x="0" fill="#4b4b4b" font-size="10pt" font-family="noto_regular"  y="15"></text></g></g><g id="lbdgdr4IuqO"><g><path d="M 740,355 L 568,490" fill="none" stroke="#7E7E7E" stroke-width="2" stroke-linecap="round" stroke-linejoin="round"/></g></g><g id="6PxHisOUMLI"><g><path d="M 740,355 L 550,355" fill="none" stroke="#7E7E7E" stroke-width="2" stroke-linecap="round" stroke-linejoin="round"/></g></g><g id="x8ebtV8bpm4"><g><path d="M 740,355 L 690,205" fill="none" stroke="#7E7E7E" stroke-width="2" stroke-linecap="round" stroke-linejoin="round"/></g></g><g id="Tv5uMofxryj"><g><path d="M 798,340 L 795,195" fill="none" stroke="#7E7E7E" stroke-width="2" stroke-linecap="round" stroke-linejoin="round"/></g></g><g id="nk7SeId9KQx"><g><path d="M 855,355 L 1000,255" fill="none" stroke="#7E7E7E" stroke-width="2" stroke-linecap="round" stroke-linejoin="round"/></g></g><g id="pJfCqo7Vn0g"><g><path d="M 1040,360 L 855,355" fill="none" stroke="#7E7E7E" stroke-width="2" stroke-linecap="round" stroke-linejoin="round"/></g></g><g id="zj1nu6qbbMb"><g><path d="M 798,370 L 800,500" fill="none" stroke="#7E7E7E" stroke-width="2" stroke-linecap="round" stroke-linejoin="round"/></g></g><g id="WMRd6ga26P9"><g><path d="M 950,525 L 855,355" fill="none" stroke="#7E7E7E" stroke-width="2" stroke-linecap="round" stroke-linejoin="round"/></g></g></svg>